<svg width="110" height="90" viewBox="0 0 110 90" fill="none" xmlns="http://www.w3.org/2000/svg">
<path d="M57.2848 29.278H28.1152V40.0199H48.0825C50.4078 35.8456 53.5378 32.1919 57.2848 29.278Z" fill="white"/>
<path d="M43.6095 57.3722C43.6115 54.6396 43.9219 51.9162 44.5348 49.2556C41.1952 51.8705 37.1632 53.4098 32.957 53.6755C28.7508 53.9413 24.5626 52.9215 20.9306 50.747C17.2986 48.5726 14.3887 45.343 12.5749 41.4732C10.7612 37.6035 10.1264 33.2704 10.7522 29.0308C11.378 24.7912 13.2358 20.8388 16.0868 17.6816C18.9378 14.5244 22.6518 12.3066 26.7514 11.3132C30.851 10.3198 35.149 10.5963 39.0929 12.107C43.0369 13.6178 46.4467 16.2938 48.8841 19.7911H60.9036C58.4859 13.9108 54.4084 8.89191 49.1866 5.36913C43.9649 1.84635 37.8335 -0.022054 31.5678 0.000196441C25.3022 0.0224469 19.1838 1.93436 13.9864 5.49413C8.78891 9.05391 4.74591 14.1017 2.36865 19.999C-0.00860314 25.8963 -0.613336 32.3784 0.630935 38.6254C1.87521 44.8724 4.91259 50.6037 9.35896 55.0945C13.8053 59.5854 19.461 62.634 25.6106 63.8549C31.7603 65.0758 38.1277 64.4141 43.9077 61.9535C43.7094 60.4347 43.6098 58.9043 43.6095 57.3722Z" fill="white"/>
<path d="M109.866 54.4338H74.7744V65.1757H98.0011C96.2939 69.6352 93.1727 73.3875 89.1319 75.8381C85.0911 78.2886 80.362 79.2973 75.6939 78.7043C71.0258 78.1113 66.6858 75.9504 63.3615 72.5642C60.0373 69.178 57.919 64.76 57.3423 60.0105C56.7656 55.2609 57.7636 50.4515 60.178 46.3442C62.5924 42.2369 66.2852 39.0667 70.6711 37.3361C75.0571 35.6054 79.8853 35.4132 84.3908 36.79C88.8963 38.1668 92.8213 41.0337 95.5437 44.9366H107.563C104.538 37.5453 98.9197 31.5621 91.8 28.1496C84.6804 24.7371 76.5678 24.1391 69.0389 26.4718C61.51 28.8044 55.1024 33.9012 51.0614 40.7716C47.0203 47.642 45.6344 55.7953 47.1729 63.6472C48.7114 71.4991 53.0645 78.4888 59.3862 83.2579C65.7079 88.027 73.5468 90.235 81.3795 89.4528C89.2122 88.6706 96.4793 84.954 101.769 79.0253C107.058 73.0966 109.992 65.3793 110 57.3729C110 56.3793 109.949 55.3961 109.866 54.4338Z" fill="white"/>
</svg>
