<svg width="361" height="88" viewBox="0 0 361 88" fill="none" xmlns="http://www.w3.org/2000/svg">
<path d="M55.6912 28.4634H27.333V38.9065H46.7449C49.0055 34.8483 52.0484 31.2963 55.6912 28.4634Z" fill="#292B2D"/>
<path d="M42.3964 55.7763C42.3983 53.1196 42.7001 50.472 43.296 47.8854C40.0493 50.4276 36.1295 51.924 32.0403 52.1824C27.9511 52.4408 23.8793 51.4493 20.3483 49.3354C16.8174 47.2215 13.9884 44.0817 12.2251 40.3196C10.4619 36.5574 9.84475 32.3449 10.4531 28.2232C11.0615 24.1015 12.8676 20.2591 15.6393 17.1897C18.411 14.1203 22.0216 11.9642 26.0072 10.9985C29.9928 10.0327 34.1712 10.3015 38.0055 11.7702C41.8397 13.2389 45.1547 15.8405 47.5242 19.2406H59.2094C56.859 13.5239 52.8948 8.64456 47.8184 5.21977C42.7419 1.79499 36.781 -0.0214405 30.6897 0.000190976C24.5984 0.0218225 18.6501 1.88055 13.5973 5.3413C8.54443 8.80205 4.61389 13.7094 2.30276 19.4427C-0.00836382 25.176 -0.596274 31.4777 0.613384 37.5509C1.82304 43.6241 4.77593 49.196 9.09861 53.5619C13.4213 57.9279 18.9196 60.8917 24.8982 62.0786C30.8768 63.2655 37.0671 62.6223 42.6862 60.2301C42.4935 58.7536 42.3967 57.2657 42.3964 55.7763Z" fill="#292B2D"/>
<path d="M106.81 52.9187H72.6943V63.3618H95.2749C93.6152 67.6972 90.5808 71.3451 86.6524 73.7276C82.7241 76.11 78.1265 77.0906 73.5883 76.5141C69.05 75.9375 64.8307 73.8368 61.5989 70.5448C58.3672 67.2527 56.3078 62.9577 55.7472 58.3403C55.1865 53.7228 56.1567 49.0471 58.504 45.0541C60.8512 41.0611 64.4412 37.9791 68.7052 36.2966C72.9692 34.6141 77.6631 34.4273 82.0433 35.7657C86.4234 37.1042 90.2392 39.8914 92.8859 43.6857H104.571C101.63 36.5 96.168 30.6832 89.2464 27.3657C82.3247 24.0481 74.4379 23.4667 67.1184 25.7345C59.7989 28.0023 53.5696 32.9573 49.641 39.6366C45.7123 46.3158 44.3649 54.2424 45.8606 61.8759C47.3563 69.5093 51.5883 76.3045 57.7342 80.941C63.8801 85.5774 71.5009 87.724 79.1157 86.9635C86.7305 86.2031 93.7955 82.5899 98.9377 76.8262C104.08 71.0624 106.932 63.5597 106.94 55.7761C106.94 54.8101 106.89 53.8542 106.81 52.9187Z" fill="#292B2D"/>
<path d="M130.48 27.4262C129.773 27.4168 129.068 27.5197 128.391 27.7313C127.784 27.918 127.229 28.2491 126.772 28.6973C126.293 29.1794 125.925 29.7626 125.692 30.4056C125.412 31.213 125.26 32.061 125.242 32.9173C125.189 34.4832 125.189 36.0492 125.242 37.6151C125.26 38.4681 125.412 39.3127 125.692 40.1166C125.927 40.7614 126.295 41.3474 126.772 41.8351C127.228 42.296 127.782 42.6439 128.391 42.852C129.069 43.0551 129.773 43.1545 130.48 43.1468C131.196 43.1518 131.908 43.042 132.589 42.8214C133.217 42.6146 133.791 42.2671 134.269 41.8046C134.763 41.3279 135.146 40.744 135.388 40.0963C135.675 39.3129 135.814 38.4815 135.798 37.6456V36.2831H131.33C130.95 36.2831 130.77 36.0797 130.77 35.6831V35.3374C130.77 34.9306 130.95 34.7374 131.33 34.7374H136.828C136.908 34.7255 136.99 34.7327 137.067 34.7586C137.143 34.7846 137.213 34.8284 137.271 34.8867C137.328 34.945 137.371 35.0161 137.397 35.0943C137.422 35.1726 137.429 35.2558 137.417 35.3374V37.6355C137.427 38.6086 137.268 39.5758 136.948 40.4928C136.663 41.3272 136.206 42.0899 135.608 42.7299C134.993 43.3707 134.245 43.8639 133.419 44.1739C132.479 44.5255 131.482 44.6979 130.48 44.6823C129.481 44.7004 128.488 44.528 127.552 44.1739C126.749 43.8666 126.022 43.3828 125.425 42.7571C124.827 42.1313 124.372 41.379 124.093 40.5539C123.781 39.6513 123.612 38.7039 123.593 37.7473C123.593 36.9644 123.533 36.1305 123.533 35.2662C123.533 34.4019 123.533 33.5681 123.593 32.7851C123.61 31.8274 123.783 30.8792 124.103 29.9785C124.393 29.1664 124.842 28.4226 125.422 27.7923C126.017 27.1648 126.741 26.6787 127.542 26.3687C128.468 26.016 129.451 25.8436 130.44 25.8603C131.466 25.8374 132.486 26.0241 133.439 26.4094C134.193 26.7213 134.889 27.1615 135.498 27.711C135.986 28.1631 136.387 28.7047 136.678 29.3074C136.898 29.7382 137.037 30.2073 137.088 30.6903C137.099 30.7591 137.094 30.8299 137.071 30.8958C137.048 30.9617 137.009 31.0205 136.958 31.0666C136.903 31.1186 136.838 31.1589 136.768 31.1851C136.698 31.2113 136.623 31.2229 136.548 31.2191H136.088C136.026 31.225 135.964 31.2172 135.905 31.1961C135.846 31.175 135.793 31.1412 135.748 31.0971C135.656 30.9764 135.588 30.8381 135.548 30.6903C135.4 30.2728 135.205 29.8736 134.968 29.5006C134.697 29.104 134.359 28.7596 133.969 28.4838C133.523 28.1591 133.031 27.9054 132.509 27.7313C131.853 27.5239 131.168 27.421 130.48 27.4262Z" fill="#292B2D" stroke="#292B2D" stroke-width="0.2" stroke-miterlimit="10"/>
<path d="M144.265 42.8316H153.081C153.161 42.8201 153.244 42.8275 153.321 42.8534C153.398 42.8793 153.468 42.923 153.526 42.981C153.584 43.039 153.628 43.1098 153.655 43.188C153.682 43.2661 153.691 43.3495 153.681 43.4316V43.8281C153.681 44.2146 153.481 44.4078 153.081 44.4078H143.175C143.098 44.4181 143.02 44.4101 142.947 44.3845C142.874 44.3588 142.807 44.3162 142.753 44.26C142.699 44.2038 142.658 44.1356 142.634 44.0606C142.61 43.9856 142.604 43.9061 142.615 43.8281V26.6941C142.603 26.6166 142.61 26.5372 142.633 26.4626C142.657 26.3879 142.698 26.3201 142.753 26.2646C142.807 26.2091 142.874 26.1675 142.947 26.1432C143.021 26.1188 143.099 26.1125 143.175 26.1247H143.665C143.741 26.1125 143.819 26.1188 143.892 26.1432C143.966 26.1675 144.033 26.2091 144.087 26.2646C144.142 26.3201 144.183 26.3879 144.206 26.4626C144.23 26.5372 144.237 26.6166 144.225 26.6941L144.265 42.8316Z" fill="#292B2D" stroke="#292B2D" stroke-width="0.2" stroke-miterlimit="10"/>
<path d="M163.807 25.8603C164.731 25.8508 165.651 26.0021 166.525 26.3077C167.322 26.5871 168.046 27.046 168.645 27.65C169.272 28.2877 169.759 29.0537 170.074 29.8972C170.429 30.9163 170.615 31.9885 170.624 33.0698C170.624 33.8528 170.674 34.5849 170.674 35.2662C170.674 35.9475 170.674 36.6695 170.624 37.4525C170.557 39.92 169.941 41.7402 168.774 42.913C167.371 44.0455 165.633 44.6619 163.842 44.6619C162.05 44.6619 160.312 44.0455 158.909 42.913C157.749 41.7402 157.136 39.92 157.069 37.4525C157.069 36.6695 157.069 35.9373 157.069 35.2662C157.069 34.5951 157.069 33.8528 157.069 33.0698C157.078 31.9885 157.264 30.9163 157.619 29.8972C157.922 29.0572 158.396 28.2916 159.009 27.65C159.601 27.0485 160.318 26.5899 161.108 26.3077C161.976 26.0051 162.889 25.8539 163.807 25.8603ZM163.807 27.4262C163.127 27.421 162.451 27.531 161.807 27.7516C161.198 27.959 160.644 28.3071 160.188 28.7685C159.689 29.2831 159.31 29.9051 159.078 30.5887C158.789 31.4289 158.637 32.3117 158.629 33.202C158.629 33.5986 158.629 33.9646 158.629 34.3002C158.629 34.6358 158.629 34.951 158.629 35.3171C158.629 35.6831 158.629 35.9577 158.629 36.3339C158.629 36.7102 158.629 37.0355 158.629 37.422C158.636 38.3156 158.788 39.202 159.078 40.0454C159.308 40.7139 159.676 41.3243 160.158 41.8351C160.604 42.299 161.152 42.6476 161.757 42.852C163.077 43.2858 164.497 43.2858 165.816 42.852C166.421 42.6476 166.969 42.299 167.415 41.8351C167.897 41.3243 168.265 40.7139 168.495 40.0454C168.785 39.202 168.937 38.3156 168.944 37.422C168.944 37.0355 168.944 36.6695 168.944 36.3339V34.3205C168.944 33.9884 168.944 33.6223 168.944 33.2223C168.936 32.3321 168.784 31.4492 168.495 30.609C168.266 29.9346 167.894 29.3199 167.405 28.8092C166.95 28.3477 166.395 27.9997 165.786 27.7923C165.15 27.56 164.482 27.4363 163.807 27.4262Z" fill="#292B2D" stroke="#292B2D" stroke-width="0.2" stroke-miterlimit="10"/>
<path d="M176.56 44.408C176.484 44.4184 176.406 44.4104 176.332 44.3848C176.259 44.3591 176.193 44.3165 176.138 44.2603C176.084 44.2041 176.043 44.1358 176.02 44.0609C175.996 43.9859 175.989 43.9064 176.001 43.8284V26.7249C176.001 26.3182 176.191 26.1249 176.56 26.1249H183.268C184.053 26.1057 184.836 26.2332 185.577 26.5012C186.179 26.7242 186.73 27.0703 187.196 27.518C187.61 27.9409 187.927 28.4512 188.126 29.0128C188.327 29.5801 188.428 30.179 188.425 30.7822C188.433 31.2885 188.362 31.793 188.216 32.2769C188.097 32.6868 187.915 33.0747 187.676 33.426C187.473 33.7346 187.227 34.012 186.946 34.2496C186.708 34.451 186.446 34.6218 186.166 34.7581C186.527 34.9403 186.863 35.1693 187.166 35.4394C187.488 35.7369 187.768 36.0792 187.996 36.4562C188.24 36.8572 188.435 37.2875 188.575 37.7375C188.727 38.2275 188.801 38.7389 188.795 39.2526C188.794 39.9095 188.676 40.5607 188.445 41.1744C188.22 41.7872 187.881 42.35 187.446 42.8319C186.977 43.3355 186.408 43.7308 185.777 43.9911C185.043 44.2903 184.258 44.4389 183.468 44.4284L176.56 44.408ZM177.62 27.6909V34.0564H182.928C183.965 34.1365 184.997 33.8372 185.837 33.2124C186.17 32.9102 186.432 32.536 186.605 32.1174C186.778 31.6987 186.857 31.246 186.836 30.7923C186.836 28.7586 185.543 27.7248 182.958 27.6909H177.62ZM177.62 35.6326V42.8319H183.188C183.721 42.8717 184.257 42.8021 184.763 42.6275C185.27 42.4528 185.737 42.1766 186.136 41.8151C186.797 41.1192 187.167 40.1896 187.167 39.2221C187.167 38.2546 186.797 37.3249 186.136 36.6291C185.322 35.9106 184.264 35.5456 183.188 35.6122L177.62 35.6326Z" fill="#292B2D" stroke="#292B2D" stroke-width="0.2" stroke-miterlimit="10"/>
<path d="M204.339 39.8323H195.253L193.664 44.0115C193.612 44.0988 193.552 44.1806 193.484 44.2556C193.433 44.3081 193.372 44.3489 193.305 44.3753C193.238 44.4016 193.166 44.4128 193.094 44.4081H192.584C192.516 44.4072 192.45 44.3923 192.388 44.3643C192.326 44.3364 192.27 44.2959 192.224 44.2454C192.176 44.1981 192.138 44.1412 192.112 44.0782C192.086 44.0152 192.073 43.9476 192.074 43.8793C192.073 43.7821 192.09 43.6855 192.124 43.5946L198.622 26.6436C198.664 26.4815 198.761 26.3401 198.897 26.245C199.033 26.1499 199.197 26.1073 199.361 26.125H200.231C200.401 26.1115 200.571 26.1582 200.711 26.2572C200.834 26.3586 200.927 26.4922 200.981 26.6436L207.478 43.5946C207.508 43.6866 207.525 43.7825 207.528 43.8793C207.53 43.9486 207.516 44.0174 207.488 44.0807C207.461 44.144 207.42 44.2003 207.368 44.2454C207.322 44.2959 207.266 44.3364 207.204 44.3643C207.143 44.3923 207.076 44.4072 207.008 44.4081H206.498C206.426 44.4128 206.354 44.4016 206.287 44.3753C206.22 44.3489 206.159 44.3081 206.108 44.2556C206.04 44.1832 205.983 44.101 205.939 44.0115L204.339 39.8323ZM195.873 38.2663H203.729L199.801 27.9757L195.873 38.2663Z" fill="#292B2D" stroke="#292B2D" stroke-width="0.2" stroke-miterlimit="10"/>
<path d="M218.383 26.1248C219.92 26.0441 221.437 26.5037 222.681 27.4264C223.235 27.9156 223.669 28.53 223.949 29.2203C224.228 29.9106 224.345 30.6578 224.29 31.4023C224.359 32.606 224.004 33.7953 223.291 34.7579C222.547 35.6242 221.541 36.2144 220.432 36.4357L224.57 43.5537C224.614 43.642 224.638 43.7394 224.64 43.8384C224.641 43.9067 224.628 43.9743 224.602 44.0373C224.577 44.1003 224.538 44.1572 224.49 44.2045C224.444 44.255 224.388 44.2955 224.327 44.3234C224.265 44.3514 224.198 44.3663 224.13 44.3672H223.82C223.707 44.3776 223.592 44.364 223.484 44.3273C223.375 44.2906 223.276 44.2314 223.191 44.1537C223.056 44.0037 222.942 43.8362 222.851 43.6554L218.762 36.6289H213.455V43.7469C213.465 43.8274 213.457 43.9092 213.431 43.9858C213.404 44.0624 213.361 44.1317 213.304 44.1881C213.246 44.2444 213.177 44.2863 213.1 44.3104C213.024 44.3344 212.944 44.34 212.865 44.3265H212.405C212.328 44.3386 212.248 44.332 212.174 44.3071C212.099 44.2823 212.031 44.2399 211.976 44.1835C211.921 44.1271 211.879 44.0581 211.854 43.9823C211.83 43.9064 211.823 43.8258 211.835 43.7469V26.7247C211.835 26.318 212.025 26.1248 212.405 26.1248H218.383ZM213.455 35.1036H218.253C221.205 35.1036 222.678 33.8699 222.671 31.4023C222.671 28.9212 221.201 27.6908 218.253 27.6908H213.455V35.1036Z" fill="#292B2D" stroke="#292B2D" stroke-width="0.2" stroke-miterlimit="10"/>
<path d="M230.449 33.0699C230.449 34.5138 230.449 35.9781 230.449 37.4525C230.372 39.029 230.898 40.5743 231.918 41.764C232.421 42.2246 233.008 42.5795 233.646 42.8081C234.285 43.0367 234.961 43.1346 235.636 43.0961C236.271 43.103 236.905 43.0382 237.526 42.9029C238.068 42.7846 238.581 42.5564 239.035 42.2318C239.491 41.9048 239.873 41.4817 240.155 40.9912C240.499 40.3891 240.742 39.7327 240.874 39.049C240.877 38.9666 240.897 38.8857 240.933 38.812C240.969 38.7383 241.021 38.6734 241.084 38.6219C241.183 38.5414 241.307 38.4983 241.434 38.4999H241.954C242.099 38.5006 242.24 38.5507 242.354 38.6423C242.405 38.689 242.444 38.7476 242.469 38.813C242.493 38.8785 242.502 38.949 242.494 39.0185C242.449 39.6822 242.301 40.3345 242.054 40.9505C241.782 41.6379 241.37 42.2584 240.844 42.7707C240.24 43.361 239.526 43.8241 238.745 44.1333C237.752 44.5117 236.696 44.6913 235.636 44.6621C234.612 44.6895 233.593 44.5098 232.638 44.1333C231.838 43.8041 231.12 43.2968 230.539 42.6487C229.973 42.0057 229.55 41.2461 229.299 40.4218C229.012 39.5036 228.857 38.548 228.839 37.5847C228.839 36.8729 228.779 36.1103 228.779 35.2866C228.779 34.463 228.779 33.6902 228.839 32.9377C228.859 31.9812 229.014 31.0326 229.299 30.121C229.548 29.2896 229.971 28.5229 230.539 27.8738C231.121 27.2288 231.838 26.7249 232.638 26.3993C233.592 26.0193 234.612 25.8362 235.636 25.8604C236.697 25.8342 237.753 26.0172 238.745 26.3993C239.526 26.7053 240.239 27.1649 240.844 27.7517C241.364 28.2668 241.773 28.8868 242.044 29.5719C242.291 30.188 242.439 30.8402 242.484 31.5039C242.492 31.5735 242.484 31.6442 242.46 31.7099C242.435 31.7755 242.396 31.834 242.344 31.8802C242.23 31.9717 242.089 32.0219 241.944 32.0225H241.424C241.351 32.0253 241.279 32.0131 241.211 31.9867C241.144 31.9604 241.082 31.9203 241.029 31.8691C240.977 31.8178 240.936 31.7563 240.907 31.6884C240.879 31.6204 240.864 31.5473 240.864 31.4734C240.732 30.7898 240.489 30.1333 240.145 29.5312C239.866 29.0448 239.492 28.6224 239.045 28.2907C238.591 27.9661 238.078 27.7378 237.536 27.6195C236.914 27.4892 236.281 27.4245 235.646 27.4263C234.971 27.3878 234.295 27.4857 233.656 27.7143C233.018 27.943 232.431 28.2978 231.928 28.7584C230.905 29.9466 230.374 31.4921 230.449 33.0699Z" fill="#292B2D" stroke="#292B2D" stroke-width="0.2" stroke-miterlimit="10"/>
<path d="M260.106 26.1243C260.186 26.1123 260.268 26.1195 260.345 26.1455C260.422 26.1714 260.492 26.2152 260.549 26.2735C260.607 26.3318 260.65 26.4029 260.675 26.4812C260.701 26.5594 260.708 26.6426 260.696 26.7242V43.8277C260.706 43.9082 260.698 43.99 260.672 44.0666C260.646 44.1432 260.602 44.2125 260.545 44.2689C260.487 44.3252 260.418 44.3671 260.342 44.3912C260.266 44.4152 260.185 44.4208 260.106 44.4073H259.636C259.56 44.4177 259.481 44.4097 259.408 44.3841C259.335 44.3584 259.269 44.3158 259.214 44.2596C259.16 44.2034 259.119 44.1351 259.095 44.0602C259.072 43.9852 259.065 43.9057 259.077 43.8277V35.9166H249.171V43.8277C249.181 43.9082 249.173 43.99 249.147 44.0666C249.121 44.1432 249.077 44.2125 249.02 44.2689C248.962 44.3252 248.893 44.3671 248.817 44.3912C248.74 44.4152 248.66 44.4208 248.581 44.4073H248.111C248.034 44.4177 247.956 44.4097 247.883 44.3841C247.81 44.3584 247.743 44.3158 247.689 44.2596C247.635 44.2034 247.594 44.1351 247.57 44.0602C247.546 43.9852 247.54 43.9057 247.551 43.8277V26.7242C247.551 26.3175 247.741 26.1243 248.111 26.1243H248.581C248.661 26.1123 248.743 26.1195 248.82 26.1455C248.897 26.1714 248.967 26.2152 249.024 26.2735C249.081 26.3318 249.124 26.4029 249.15 26.4812C249.175 26.5594 249.183 26.6426 249.171 26.7242V34.3201H259.037V26.6937C259.037 26.287 259.227 26.0938 259.596 26.0938L260.106 26.1243Z" fill="#292B2D" stroke="#292B2D" stroke-width="0.2" stroke-miterlimit="10"/>
<path d="M279.898 27.4264C279.187 27.4177 278.479 27.5206 277.799 27.7315C277.191 27.9182 276.636 28.2493 276.179 28.6975C275.701 29.1776 275.335 29.7616 275.11 30.4058C274.82 31.2106 274.667 32.0602 274.66 32.9174C274.6 34.4834 274.6 36.0494 274.66 37.6153C274.667 38.4693 274.82 39.3155 275.11 40.1168C275.338 40.7628 275.703 41.3496 276.179 41.8353C276.637 42.2942 277.19 42.6418 277.799 42.8521C278.48 43.0545 279.188 43.1539 279.898 43.147C280.61 43.1513 281.318 43.0415 281.997 42.8216C282.635 42.617 283.219 42.267 283.704 41.7983C284.189 41.3296 284.562 40.7545 284.796 40.1168C285.083 39.3334 285.222 38.502 285.206 37.6662V36.2832H280.737C280.368 36.2832 280.178 36.0799 280.178 35.6833V35.3376C280.178 34.9308 280.368 34.7376 280.737 34.7376H286.235C286.315 34.7256 286.397 34.7329 286.474 34.7588C286.551 34.7847 286.621 34.8286 286.678 34.8869C286.735 34.9452 286.779 35.0163 286.804 35.0945C286.83 35.1728 286.837 35.256 286.825 35.3376V37.6357C286.837 38.6082 286.682 39.5753 286.365 40.493C286.073 41.3261 285.614 42.0881 285.016 42.7301C284.402 43.3678 283.658 43.8607 282.837 44.174C281.896 44.5239 280.9 44.6962 279.898 44.6825C278.899 44.7006 277.906 44.5282 276.969 44.174C276.168 43.8641 275.445 43.3779 274.85 42.7505C274.265 42.1288 273.819 41.3867 273.541 40.5744C273.228 39.6718 273.06 38.7244 273.041 37.7678C273.041 36.9849 272.991 36.151 272.991 35.2867C272.991 34.4224 272.991 33.5886 273.041 32.8056C273.058 31.8479 273.23 30.8997 273.55 29.9991C273.84 29.1869 274.289 28.4431 274.87 27.8128C275.466 27.1874 276.189 26.7016 276.989 26.3892C277.919 26.0358 278.905 25.8633 279.898 25.8808C280.923 25.8579 281.943 26.0446 282.897 26.4299C283.673 26.7299 284.393 27.1632 285.026 27.7111C285.517 28.1605 285.917 28.7027 286.205 29.3076C286.43 29.7365 286.569 30.2065 286.615 30.6905C286.629 30.7593 286.624 30.8307 286.601 30.897C286.579 30.9633 286.538 31.022 286.485 31.0668C286.429 31.1347 286.359 31.1884 286.279 31.2237C286.199 31.259 286.112 31.2749 286.025 31.2701H285.465C285.404 31.276 285.341 31.2682 285.282 31.2471C285.224 31.226 285.17 31.1923 285.126 31.1481C285.041 31.0226 284.974 30.8857 284.926 30.7414C284.777 30.3238 284.583 29.9247 284.346 29.5516C284.075 29.155 283.736 28.8107 283.346 28.5348C282.9 28.2101 282.408 27.9564 281.887 27.7823C281.246 27.5607 280.575 27.4406 279.898 27.4264Z" fill="#292B2D" stroke="#292B2D" stroke-width="0.2" stroke-miterlimit="10"/>
<path d="M298.61 26.1248C300.147 26.0441 301.665 26.5037 302.908 27.4264C303.462 27.9156 303.897 28.53 304.176 29.2203C304.455 29.9106 304.572 30.6578 304.517 31.4023C304.586 32.606 304.232 33.7953 303.518 34.7579C302.774 35.6242 301.768 36.2144 300.659 36.4357L304.787 43.5537C304.834 43.6415 304.861 43.7387 304.867 43.8384C304.868 43.9066 304.855 43.9743 304.83 44.0373C304.804 44.1003 304.766 44.1572 304.717 44.2045C304.622 44.3029 304.493 44.361 304.357 44.3672H304.018C303.904 44.3776 303.789 44.364 303.681 44.3273C303.572 44.2906 303.473 44.2314 303.388 44.1537C303.25 44.0041 303.132 43.8366 303.038 43.6554L299.02 36.6696H293.732V43.7876C293.742 43.868 293.734 43.9498 293.708 44.0265C293.682 44.1031 293.638 44.1724 293.581 44.2287C293.523 44.2851 293.454 44.327 293.378 44.3511C293.301 44.3751 293.221 44.3806 293.142 44.3672H292.672C292.595 44.3775 292.517 44.3696 292.444 44.3439C292.371 44.3183 292.304 44.2757 292.25 44.2195C292.196 44.1633 292.155 44.095 292.131 44.02C292.107 43.9451 292.101 43.8655 292.112 43.7876V26.7247C292.112 26.318 292.302 26.1248 292.672 26.1248H298.61ZM293.682 35.1036H298.48C301.432 35.1036 302.905 33.8699 302.898 31.4023C302.898 28.9212 301.429 27.6908 298.48 27.6908H293.682V35.1036Z" fill="#292B2D" stroke="#292B2D" stroke-width="0.2" stroke-miterlimit="10"/>
<path d="M315.863 25.8601C316.788 25.8506 317.707 26.0019 318.582 26.3076C319.378 26.587 320.103 27.0458 320.701 27.6498C321.314 28.2914 321.787 29.0571 322.09 29.8971C322.441 30.9174 322.627 31.9888 322.64 33.0697C322.64 33.8526 322.69 34.5848 322.69 35.2661C322.69 35.9474 322.69 36.6693 322.64 37.4523C322.567 39.9199 321.95 41.7401 320.791 42.9128C319.382 44.0377 317.643 44.6491 315.853 44.6491C314.062 44.6491 312.323 44.0377 310.915 42.9128C309.769 41.7401 309.159 39.9199 309.086 37.4523C309.086 36.6693 309.036 35.9372 309.036 35.2661C309.036 34.5949 309.036 33.8526 309.086 33.0697C309.089 31.9879 309.275 30.9148 309.635 29.8971C309.932 29.0561 310.402 28.2897 311.015 27.6498C311.607 27.0484 312.324 26.5897 313.114 26.3076C313.998 25.9985 314.928 25.8471 315.863 25.8601ZM315.863 27.4261C315.183 27.4229 314.508 27.5328 313.864 27.7515C313.258 27.9616 312.708 28.3094 312.254 28.7684C311.762 29.2783 311.386 29.893 311.155 30.5682C310.875 31.4108 310.723 32.2922 310.705 33.1815C310.705 33.5781 310.705 33.9442 310.705 34.2797C310.705 34.6153 310.705 34.9305 310.705 35.2966C310.705 35.6626 310.705 35.9372 310.705 36.3134C310.705 36.6897 310.705 37.0151 310.705 37.4015C310.721 38.2943 310.873 39.1792 311.155 40.025C311.392 40.6897 311.759 41.2985 312.234 41.8146C312.686 42.2765 313.237 42.6247 313.844 42.8315C314.488 43.0503 315.163 43.1603 315.843 43.1569C316.522 43.1586 317.197 43.0488 317.842 42.8315C318.446 42.6243 318.994 42.276 319.441 41.8146C319.917 41.2985 320.284 40.6897 320.521 40.025C320.824 39.1731 320.99 38.2768 321.011 37.371C321.011 36.9846 321.011 36.6185 321.011 36.2829V34.3204C321.011 33.9882 321.011 33.6222 321.011 33.2222C320.998 32.3324 320.846 31.4503 320.561 30.6089C320.329 29.9363 319.957 29.3224 319.471 28.809C319.016 28.3476 318.462 27.9996 317.852 27.7922C317.213 27.5597 316.541 27.436 315.863 27.4261Z" fill="#292B2D" stroke="#292B2D" stroke-width="0.2" stroke-miterlimit="10"/>
<path d="M339.503 26.7247C339.492 26.6431 339.499 26.5599 339.524 26.4817C339.55 26.4034 339.593 26.3323 339.65 26.274C339.707 26.2157 339.777 26.1719 339.854 26.146C339.931 26.12 340.013 26.1128 340.093 26.1247H340.553C340.933 26.1247 341.123 26.3179 341.123 26.7247V37.3712C341.123 39.9133 340.543 41.764 339.403 42.9436C338.748 43.5556 337.979 44.0269 337.141 44.3292C336.303 44.6315 335.413 44.7585 334.525 44.7027C333.576 44.7181 332.63 44.5738 331.727 44.2756C330.937 44.0107 330.223 43.5534 329.647 42.9436C329.049 42.2911 328.605 41.5087 328.348 40.6556C328.028 39.592 327.876 38.4833 327.898 37.3712V26.7247C327.898 26.3179 328.088 26.1247 328.468 26.1247H328.928C329.008 26.1128 329.09 26.12 329.167 26.146C329.243 26.1719 329.313 26.2157 329.371 26.274C329.428 26.3323 329.471 26.4034 329.497 26.4817C329.522 26.5599 329.529 26.6431 329.517 26.7247V37.3712C329.451 38.1465 329.536 38.9275 329.768 39.6692C329.999 40.4109 330.373 41.0987 330.867 41.6928C331.355 42.1594 331.931 42.5213 332.559 42.7571C333.188 42.993 333.856 43.0979 334.525 43.0656C335.192 43.1022 335.859 42.9992 336.485 42.7631C337.11 42.527 337.682 42.1627 338.164 41.6928C338.657 41.0982 339.029 40.4101 339.259 39.6683C339.489 38.9266 339.572 38.1458 339.503 37.3712V26.7247Z" fill="#292B2D" stroke="#292B2D" stroke-width="0.2" stroke-miterlimit="10"/>
<path d="M353.877 26.1246C355.426 26.0425 356.951 26.5297 358.176 27.4974C358.733 28.0042 359.168 28.6347 359.447 29.3401C359.726 30.0454 359.842 30.8067 359.785 31.5648C359.84 32.3228 359.724 33.0836 359.445 33.7887C359.166 34.4938 358.732 35.1245 358.176 35.6323C356.951 36.5999 355.426 37.0872 353.877 37.005H348.69V43.8993C348.69 44.2857 348.5 44.4789 348.1 44.4789H347.64C347.563 44.4892 347.485 44.4813 347.412 44.4556C347.339 44.43 347.272 44.3874 347.218 44.3312C347.164 44.275 347.123 44.2067 347.099 44.1318C347.075 44.0568 347.069 43.9772 347.08 43.8993V26.7246C347.08 26.3179 347.26 26.1246 347.64 26.1246H353.877ZM348.69 35.3374H353.747C354.945 35.4244 356.133 35.0627 357.086 34.3205C357.46 33.951 357.75 33.503 357.937 33.0078C358.123 32.5126 358.201 31.982 358.166 31.453C358.201 30.9255 358.123 30.3964 357.936 29.9029C357.75 29.4093 357.46 28.9632 357.086 28.5956C356.133 27.8534 354.945 27.4918 353.747 27.5788H348.69V35.3374Z" fill="#292B2D" stroke="#292B2D" stroke-width="0.2" stroke-miterlimit="10"/>
<path d="M126.952 51.3633C127.564 51.3484 128.174 51.4307 128.761 51.6074C129.201 51.7455 129.599 51.9937 129.92 52.3294C130.219 52.6668 130.434 53.0709 130.55 53.5089C130.683 54.0337 130.75 54.5736 130.75 55.1155C130.75 55.5325 130.75 55.9087 130.75 56.2239C130.75 56.5391 130.75 56.9154 130.75 57.3323C130.74 57.8943 130.67 58.4535 130.54 58.9999C130.436 59.4352 130.226 59.8372 129.93 60.1693C129.614 60.5018 129.218 60.7438 128.781 60.871C128.209 61.0353 127.616 61.1107 127.022 61.0947H124.023C123.982 61.0996 123.941 61.0951 123.903 61.0815C123.864 61.0679 123.829 61.0455 123.8 61.0162C123.771 60.9868 123.749 60.9512 123.736 60.9119C123.723 60.8727 123.718 60.8308 123.723 60.7896V51.6379C123.723 51.4244 123.823 51.3125 124.023 51.3125L126.952 51.3633ZM129.89 55.1867C129.889 54.7399 129.828 54.2953 129.711 53.8648C129.625 53.5082 129.446 53.1819 129.192 52.9206C128.939 52.6592 128.62 52.4725 128.271 52.3802C127.82 52.2481 127.351 52.1864 126.882 52.1972H124.603V60.2608H126.952C127.417 60.2731 127.881 60.2183 128.331 60.0981C128.671 60.0103 128.98 59.8291 129.225 59.5745C129.47 59.3198 129.641 59.0014 129.721 58.6542C129.836 58.1993 129.893 57.731 129.89 57.2611C129.89 57.0577 129.89 56.8747 129.89 56.7018C129.89 56.529 129.89 56.3764 129.89 56.2239C129.89 56.0714 129.89 55.9189 129.89 55.7562C129.89 55.5935 129.89 55.4003 129.89 55.1867Z" fill="#292B2D" stroke="#292B2D" stroke-width="0.2" stroke-miterlimit="10"/>
<path d="M139.417 60.2606C139.46 60.2555 139.503 60.2604 139.544 60.2751C139.585 60.2897 139.621 60.3138 139.651 60.3453C139.681 60.3767 139.704 60.4149 139.717 60.4566C139.73 60.4984 139.734 60.5427 139.727 60.586V60.7589C139.727 60.9623 139.627 61.064 139.417 61.064H133.98C133.939 61.0689 133.898 61.0643 133.859 61.0508C133.821 61.0372 133.786 61.0148 133.757 60.9855C133.728 60.9561 133.706 60.9205 133.693 60.8812C133.679 60.842 133.675 60.8001 133.68 60.7589V51.6072C133.68 51.3936 133.78 51.2818 133.98 51.2818H139.307C139.35 51.2766 139.393 51.2815 139.434 51.2962C139.475 51.3109 139.511 51.3349 139.541 51.3664C139.571 51.3979 139.594 51.436 139.607 51.4778C139.62 51.5195 139.624 51.5638 139.617 51.6072V51.8106C139.617 52.0139 139.517 52.1156 139.307 52.1156H134.539V55.6644H139.007C139.05 55.6574 139.093 55.6607 139.134 55.6741C139.174 55.6874 139.211 55.7105 139.242 55.7413C139.272 55.7721 139.295 55.8097 139.308 55.8512C139.321 55.8927 139.324 55.9367 139.317 55.9797V56.1932C139.317 56.3966 139.217 56.4983 139.007 56.4983H134.539V60.1793L139.417 60.2606Z" fill="#292B2D" stroke="#292B2D" stroke-width="0.2" stroke-miterlimit="10"/>
<path d="M145.254 51.2309C145.733 51.2208 146.21 51.2966 146.663 51.4546C147.031 51.5834 147.37 51.7837 147.663 52.0443C147.916 52.258 148.121 52.5252 148.263 52.8273C148.394 53.0861 148.469 53.3704 148.483 53.6611C148.484 53.7322 148.459 53.8011 148.413 53.8543C148.386 53.883 148.353 53.9052 148.317 53.9193C148.28 53.9334 148.241 53.939 148.203 53.9357H147.923C147.867 53.9454 147.809 53.9454 147.753 53.9357C147.716 53.911 147.685 53.878 147.662 53.8392C147.64 53.8004 147.626 53.7569 147.623 53.712C147.595 53.4779 147.516 53.2531 147.391 53.0543C147.267 52.8554 147.1 52.6875 146.903 52.5629C146.417 52.2423 145.843 52.0857 145.264 52.1155C144.952 52.1128 144.64 52.1434 144.334 52.207C144.076 52.2656 143.829 52.3688 143.605 52.5121C143.413 52.6487 143.253 52.8255 143.135 53.0307C143.018 53.2635 142.96 53.5219 142.965 53.7832C142.956 54.0274 143.011 54.2696 143.125 54.4848C143.245 54.7011 143.417 54.883 143.625 55.0136C143.892 55.1975 144.181 55.3477 144.484 55.461C144.824 55.6033 145.244 55.7457 145.744 55.9084C146.244 56.0711 146.693 56.2338 147.073 56.3965C147.41 56.5346 147.726 56.7194 148.013 56.9456C148.25 57.1367 148.441 57.3801 148.573 57.6574C148.715 57.9761 148.78 58.3247 148.762 58.6742C148.78 59.0516 148.704 59.4274 148.544 59.7681C148.384 60.1088 148.143 60.4037 147.843 60.6266C147.104 61.1322 146.223 61.3786 145.334 61.3282C144.833 61.3368 144.334 61.2647 143.855 61.1147C143.462 60.9894 143.094 60.7969 142.765 60.5453C142.486 60.332 142.255 60.0618 142.085 59.7521C141.928 59.4696 141.842 59.1516 141.835 58.8268C141.832 58.7904 141.838 58.7537 141.852 58.7201C141.866 58.6864 141.887 58.6567 141.915 58.6336C141.94 58.6039 141.97 58.5802 142.005 58.5643C142.04 58.5485 142.077 58.5409 142.115 58.5421H142.395C142.433 58.5392 142.472 58.546 142.506 58.562C142.541 58.578 142.572 58.6026 142.595 58.6336C142.645 58.6872 142.68 58.7541 142.695 58.8268C142.722 59.035 142.79 59.2355 142.895 59.4166C143.014 59.6301 143.182 59.8115 143.385 59.9453C143.627 60.1235 143.897 60.2576 144.184 60.3419C144.558 60.4512 144.945 60.5026 145.334 60.4944C146.02 60.5525 146.705 60.3772 147.283 59.9962C147.483 59.8421 147.643 59.6417 147.751 59.4118C147.859 59.1818 147.911 58.9289 147.903 58.6742C147.913 58.4274 147.85 58.183 147.723 57.9726C147.582 57.7581 147.394 57.5804 147.173 57.454C146.876 57.2809 146.565 57.1346 146.244 57.0168C145.87 56.8744 145.431 56.7219 144.924 56.5592C144.492 56.425 144.068 56.2654 143.655 56.0813C143.338 55.9418 143.045 55.7531 142.785 55.522C142.555 55.3291 142.377 55.0809 142.265 54.8C142.145 54.4754 142.091 54.1296 142.105 53.7832C142.098 53.4323 142.169 53.0844 142.315 52.7663C142.457 52.4584 142.665 52.1872 142.925 51.9732C143.219 51.7291 143.559 51.5491 143.924 51.4444C144.354 51.3039 144.803 51.2319 145.254 51.2309Z" fill="#292B2D" stroke="#292B2D" stroke-width="0.2" stroke-miterlimit="10"/>
<path d="M152.261 60.7595C152.266 60.8007 152.261 60.8425 152.248 60.8818C152.235 60.921 152.213 60.9566 152.184 60.986C152.155 61.0154 152.12 61.0377 152.081 61.0513C152.043 61.0649 152.002 61.0694 151.961 61.0645H151.701C151.661 61.0694 151.62 61.0649 151.581 61.0513C151.542 61.0377 151.507 61.0154 151.478 60.986C151.45 60.9566 151.428 60.921 151.414 60.8818C151.401 60.8425 151.396 60.8007 151.401 60.7595V51.6078C151.396 51.5665 151.401 51.5247 151.414 51.4855C151.428 51.4462 151.45 51.4106 151.478 51.3812C151.507 51.3518 151.542 51.3295 151.581 51.3159C151.62 51.3023 151.661 51.2978 151.701 51.3027H151.961C152.002 51.2978 152.043 51.3023 152.081 51.3159C152.12 51.3295 152.155 51.3518 152.184 51.3812C152.213 51.4106 152.235 51.4462 152.248 51.4855C152.261 51.5247 152.266 51.5665 152.261 51.6078V60.7595Z" fill="#292B2D" stroke="#292B2D" stroke-width="0.2" stroke-miterlimit="10"/>
<path d="M158.788 52.0645C158.413 52.0596 158.039 52.111 157.679 52.217C157.358 52.3224 157.064 52.4996 156.819 52.7356C156.566 52.9933 156.369 53.3014 156.239 53.6406C156.089 54.072 156.008 54.5252 155.999 54.9828C155.999 55.8167 155.999 56.6505 155.999 57.4843C156.007 57.9387 156.088 58.3887 156.239 58.8164C156.369 59.1556 156.566 59.4637 156.819 59.7214C157.058 59.9655 157.354 60.1439 157.679 60.24C158.037 60.3545 158.412 60.4095 158.788 60.4027C159.168 60.4047 159.546 60.3464 159.908 60.2298C160.241 60.1196 160.547 59.9395 160.807 59.7011C161.072 59.4472 161.274 59.1337 161.397 58.7859C161.554 58.3709 161.628 57.9286 161.617 57.4843V56.7725H159.238C159.038 56.7725 158.938 56.6708 158.938 56.4573V56.2539C158.932 56.2119 158.935 56.1689 158.947 56.1284C158.96 56.0878 158.982 56.0508 159.011 56.0202C159.04 55.9896 159.075 55.9664 159.115 55.9522C159.154 55.9381 159.196 55.9334 159.238 55.9387H162.167C162.209 55.9338 162.251 55.9386 162.291 55.9527C162.33 55.9669 162.367 55.9899 162.396 56.0202C162.426 56.0505 162.449 56.0873 162.463 56.1277C162.477 56.1682 162.481 56.2113 162.477 56.2539V57.4843C162.482 57.9996 162.401 58.512 162.237 58.9994C162.079 59.4418 161.834 59.8467 161.517 60.1891C161.192 60.532 160.796 60.7961 160.357 60.962C159.856 61.1528 159.324 61.246 158.788 61.2365C158.259 61.2479 157.733 61.1546 157.239 60.962C156.812 60.7989 156.427 60.542 156.109 60.2095C155.797 59.8783 155.559 59.483 155.41 59.0503C155.245 58.5689 155.154 58.0648 155.14 57.5555C155.14 57.1386 155.14 56.6912 155.14 56.2336C155.14 55.776 155.14 55.3286 155.14 54.9117C155.151 54.401 155.245 53.8959 155.42 53.4169C155.573 52.9861 155.811 52.5916 156.119 52.2577C156.438 51.924 156.823 51.6639 157.249 51.495C157.741 51.3076 158.263 51.2179 158.788 51.2306C159.341 51.215 159.892 51.3118 160.407 51.5154C160.809 51.6814 161.178 51.919 161.497 52.217C161.757 52.4559 161.97 52.7422 162.127 53.061C162.245 53.2887 162.32 53.5371 162.347 53.7931C162.352 53.8302 162.348 53.8681 162.336 53.9035C162.324 53.9389 162.303 53.9708 162.277 53.9965C162.216 54.05 162.137 54.079 162.057 54.0778H161.757C161.724 54.0806 161.692 54.0767 161.661 54.0662C161.63 54.0557 161.601 54.0389 161.577 54.0168C161.53 53.9479 161.493 53.8726 161.467 53.7931C161.39 53.5726 161.289 53.3612 161.167 53.1627C161.022 52.9506 160.843 52.765 160.637 52.6136C160.399 52.4415 160.136 52.3077 159.858 52.217C159.511 52.1086 159.15 52.0572 158.788 52.0645Z" fill="#292B2D" stroke="#292B2D" stroke-width="0.2" stroke-miterlimit="10"/>
<path d="M166.125 53.112V60.7587C166.125 60.9621 166.025 61.0638 165.815 61.0638H165.565C165.525 61.0687 165.484 61.0642 165.445 61.0506C165.407 61.037 165.372 61.0147 165.343 60.9853C165.314 60.9559 165.292 60.9203 165.279 60.881C165.265 60.8418 165.261 60.8 165.266 60.7587V51.607C165.266 51.3935 165.366 51.2816 165.565 51.2816H165.855C165.929 51.2778 166 51.3034 166.055 51.3528L166.145 51.4545L171.143 59.2945V51.6884C171.143 51.4748 171.243 51.363 171.443 51.363H171.693C171.736 51.3578 171.779 51.3627 171.82 51.3774C171.86 51.3921 171.897 51.4161 171.927 51.4476C171.957 51.4791 171.98 51.5172 171.993 51.559C172.006 51.6007 172.009 51.645 172.003 51.6884V60.7587C172.003 60.9723 171.903 61.074 171.703 61.074H171.403C171.367 61.077 171.33 61.0723 171.296 61.06C171.261 61.0478 171.23 61.0283 171.203 61.0028L171.123 60.9113L166.125 53.112Z" fill="#292B2D" stroke="#292B2D" stroke-width="0.2" stroke-miterlimit="10"/>
<path d="M189.426 56.3152C189.398 56.7874 189.318 57.2548 189.186 57.7083C189.02 58.2661 188.771 58.7943 188.446 59.2743L189.785 60.6064C189.85 60.6645 189.892 60.7436 189.905 60.8301C189.905 61.0131 189.815 61.0944 189.636 61.0944H189.336C189.256 61.107 189.175 61.107 189.096 61.0944C189.041 61.0678 188.991 61.0336 188.946 60.9928L187.946 59.9759C187.586 60.3701 187.155 60.691 186.677 60.9216C186.125 61.1777 185.524 61.3029 184.918 61.2876C184.506 61.2905 184.097 61.2217 183.708 61.0843C183.343 60.9646 183.003 60.7748 182.708 60.525C182.443 60.2895 182.232 59.998 182.089 59.6708C181.94 59.332 181.865 58.9642 181.869 58.593C181.876 58.2873 181.944 57.9863 182.069 57.7083C182.173 57.4521 182.318 57.215 182.499 57.0067C182.684 56.7878 182.896 56.5931 183.128 56.4271C183.368 56.2542 183.608 56.0915 183.868 55.9288C183.656 55.7131 183.456 55.4857 183.268 55.2475C183.129 55.0564 183.002 54.8559 182.888 54.6476C182.787 54.4739 182.713 54.2852 182.668 54.0883C182.62 53.8958 182.596 53.6974 182.599 53.4985C182.597 53.2039 182.658 52.9125 182.778 52.6444C182.887 52.3758 183.055 52.136 183.268 51.9427C183.486 51.7341 183.74 51.5686 184.018 51.4547C184.635 51.2313 185.31 51.2313 185.927 51.4547C186.21 51.5551 186.468 51.7144 186.687 51.9224C186.901 52.1241 187.071 52.3699 187.184 52.6434C187.298 52.9169 187.353 53.2118 187.347 53.5087C187.352 53.807 187.29 54.1026 187.167 54.373C187.044 54.628 186.882 54.8614 186.687 55.0645C186.485 55.2798 186.256 55.4678 186.007 55.6238C185.747 55.7966 185.477 55.9492 185.207 56.1119L186.077 56.9863L186.917 57.8303C187.227 58.1456 187.526 58.4303 187.816 58.715C188.003 58.3915 188.161 58.0511 188.286 57.6981C188.429 57.2768 188.523 56.84 188.566 56.3966C188.566 56.1932 188.666 56.0915 188.866 56.0915H189.126C189.194 56.0826 189.264 56.1008 189.32 56.1425C189.375 56.1841 189.413 56.2459 189.426 56.3152ZM184.428 56.4779L183.778 56.8948C183.586 57.0285 183.409 57.1818 183.248 57.3524C183.101 57.5081 182.98 57.6866 182.888 57.8812C182.795 58.0886 182.748 58.3141 182.748 58.5421C182.743 58.8209 182.804 59.0968 182.928 59.3455C183.043 59.5705 183.203 59.7681 183.398 59.9251C183.601 60.0852 183.832 60.2059 184.078 60.281C184.344 60.3626 184.62 60.4037 184.898 60.403C185.324 60.3976 185.745 60.3078 186.137 60.1386C186.578 59.9485 186.973 59.6641 187.297 59.3048L186.297 58.3489L185.367 57.4439L184.428 56.4779ZM186.427 53.4274C186.435 53.2359 186.401 53.0449 186.327 52.8688C186.252 52.6927 186.139 52.5361 185.997 52.4105C185.691 52.1628 185.309 52.0332 184.918 52.0444C184.533 52.0327 184.156 52.1627 183.858 52.4105C183.715 52.5338 183.599 52.6862 183.518 52.8579C183.435 53.0357 183.394 53.2307 183.398 53.4274C183.399 53.5644 183.416 53.7009 183.448 53.8341C183.486 53.9851 183.547 54.1292 183.628 54.2612C183.738 54.438 183.858 54.6078 183.988 54.7696C184.128 54.9526 184.318 55.1662 184.558 55.4204L185.267 55.0035C185.482 54.8759 185.683 54.726 185.867 54.5561C186.031 54.4073 186.169 54.232 186.277 54.0375C186.396 53.8626 186.468 53.6594 186.487 53.4477L186.427 53.4274Z" fill="#292B2D" stroke="#292B2D" stroke-width="0.2" stroke-miterlimit="10"/>
<path d="M204.249 58.6646H199.411L198.572 60.8915C198.543 60.9391 198.51 60.9834 198.472 61.0237C198.446 61.0504 198.414 61.0706 198.38 61.083C198.345 61.0953 198.308 61.0994 198.272 61.0949H197.992C197.921 61.0924 197.853 61.0634 197.802 61.0135C197.751 60.9624 197.722 60.893 197.722 60.8203C197.712 60.77 197.712 60.7182 197.722 60.6678L201.21 51.6076C201.234 51.5233 201.283 51.4485 201.35 51.3941C201.425 51.3453 201.512 51.3205 201.6 51.3229H202.06C202.149 51.3205 202.236 51.3453 202.31 51.3941C202.378 51.4485 202.427 51.5233 202.45 51.6076L205.909 60.6271C205.918 60.6775 205.918 60.7293 205.909 60.7797C205.908 60.8523 205.879 60.9218 205.829 60.9729C205.777 61.0227 205.71 61.0517 205.639 61.0542H205.359C205.322 61.0587 205.285 61.0546 205.251 61.0423C205.216 61.0299 205.185 61.0097 205.159 60.983C205.121 60.9428 205.087 60.8984 205.059 60.8508L204.249 58.6646ZM199.741 57.8308H203.929L201.83 52.3499L199.741 57.8308Z" fill="#292B2D" stroke="#292B2D" stroke-width="0.2" stroke-miterlimit="10"/>
<path d="M211.726 51.3631C212.546 51.3189 213.356 51.5671 214.016 52.0648C214.311 52.3223 214.543 52.6471 214.692 53.0128C214.842 53.3785 214.904 53.7748 214.875 54.1697C214.91 54.8126 214.719 55.4472 214.335 55.9593C213.936 56.4205 213.399 56.7349 212.806 56.8542L215.005 60.6674C215.019 60.7173 215.019 60.77 215.005 60.8199C215.007 60.8561 215 60.8923 214.987 60.9257C214.973 60.9591 214.952 60.989 214.925 61.0131C214.875 61.0647 214.807 61.094 214.735 61.0945H214.575C214.514 61.0998 214.453 61.0927 214.394 61.0735C214.336 61.0543 214.282 61.0234 214.235 60.9826C214.165 60.9172 214.105 60.8418 214.055 60.7589L211.876 57.027H209.068V60.7589C209.068 60.9623 208.958 61.064 208.748 61.064H208.508C208.298 61.064 208.198 60.9623 208.198 60.7589V51.6072C208.192 51.5638 208.195 51.5195 208.208 51.4778C208.221 51.436 208.244 51.3979 208.274 51.3664C208.304 51.3349 208.34 51.3109 208.381 51.2962C208.422 51.2815 208.465 51.2766 208.508 51.2818L211.726 51.3631ZM209.108 56.1424H211.657C213.226 56.1424 214.006 55.4916 214.006 54.1697C214.006 52.8478 213.226 52.197 211.657 52.197H209.108V56.1424Z" fill="#292B2D" stroke="#292B2D" stroke-width="0.2" stroke-miterlimit="10"/>
<path d="M218.153 55.0644C218.153 55.827 218.153 56.61 218.153 57.4031C218.106 58.2406 218.386 59.0633 218.933 59.6911C219.202 59.9402 219.518 60.1317 219.861 60.254C220.205 60.3763 220.569 60.4269 220.932 60.4029C221.268 60.4023 221.603 60.3683 221.932 60.3012C222.222 60.2371 222.497 60.1162 222.741 59.9453C222.98 59.7679 223.181 59.543 223.331 59.2843C223.513 58.9681 223.644 58.625 223.721 58.2675C223.721 58.2227 223.731 58.1785 223.75 58.1381C223.769 58.0976 223.797 58.062 223.831 58.0336C223.885 57.9911 223.953 57.9695 224.021 57.9726H224.291C224.368 57.973 224.443 58.0019 224.501 58.0539C224.531 58.0773 224.554 58.1086 224.568 58.1444C224.582 58.1802 224.587 58.2192 224.581 58.2573C224.553 58.6057 224.475 58.9482 224.351 59.2742C224.205 59.6548 223.984 60.001 223.701 60.291C223.376 60.6014 222.996 60.8464 222.582 61.013C222.056 61.2174 221.495 61.3141 220.932 61.2977C220.386 61.3136 219.842 61.2168 219.333 61.013C218.909 60.8354 218.528 60.5686 218.213 60.23C217.917 59.8826 217.693 59.478 217.554 59.0403C217.4 58.5498 217.316 58.0397 217.304 57.5252C217.304 57.1489 217.304 56.7422 217.304 56.3049C217.304 55.8677 217.304 55.4508 217.304 55.0542C217.318 54.5431 217.402 54.0366 217.554 53.5493C217.693 53.1115 217.917 52.7069 218.213 52.3595C218.523 52.0148 218.906 51.747 219.333 51.5766C219.842 51.3727 220.386 51.2759 220.932 51.2918C221.495 51.2754 222.056 51.3722 222.582 51.5766C223 51.7353 223.381 51.9812 223.701 52.2985C223.989 52.5846 224.211 52.9319 224.351 53.3154C224.477 53.6406 224.555 53.9834 224.581 54.3322C224.586 54.3703 224.581 54.4089 224.567 54.4446C224.553 54.4802 224.53 54.5115 224.501 54.5356C224.442 54.5848 224.367 54.6101 224.291 54.6068H224.051C223.983 54.6099 223.915 54.5883 223.861 54.5458C223.828 54.519 223.801 54.485 223.782 54.4464C223.763 54.4077 223.752 54.3653 223.751 54.3221C223.676 53.9639 223.544 53.6206 223.361 53.3052C223.214 53.0443 223.012 52.8189 222.771 52.6443C222.529 52.4692 222.253 52.3479 221.962 52.2883C221.633 52.2163 221.298 52.1821 220.962 52.1867C220.6 52.163 220.237 52.2128 219.893 52.3333C219.55 52.4537 219.234 52.6424 218.963 52.8883C218.434 53.4842 218.145 54.2612 218.153 55.0644Z" fill="#292B2D" stroke="#292B2D" stroke-width="0.2" stroke-miterlimit="10"/>
<path d="M233.938 51.3631C233.98 51.3579 234.024 51.3629 234.065 51.3776C234.105 51.3922 234.142 51.4163 234.172 51.4477C234.202 51.4792 234.224 51.5174 234.237 51.5591C234.251 51.6009 234.254 51.6452 234.248 51.6885V60.8403C234.253 60.8825 234.248 60.9253 234.234 60.9654C234.22 61.0056 234.197 61.0418 234.167 61.0714C234.137 61.101 234.101 61.1231 234.061 61.1359C234.021 61.1487 233.979 61.1519 233.938 61.1453H233.688C233.647 61.1502 233.606 61.1457 233.568 61.1321C233.529 61.1185 233.494 61.0962 233.465 61.0668C233.436 61.0375 233.414 61.0018 233.401 60.9626C233.388 60.9233 233.383 60.8815 233.388 60.8403V56.5796H228.11V60.7589C228.11 60.9623 228.01 61.064 227.8 61.064H227.55C227.51 61.0689 227.469 61.0644 227.43 61.0508C227.391 61.0372 227.356 61.0148 227.328 60.9855C227.299 60.9561 227.277 60.9205 227.263 60.8812C227.25 60.842 227.246 60.8002 227.25 60.7589V51.6072C227.25 51.3936 227.35 51.2818 227.55 51.2818H227.8C227.843 51.2766 227.886 51.2815 227.927 51.2962C227.968 51.3109 228.004 51.3349 228.034 51.3664C228.064 51.3979 228.087 51.436 228.1 51.4778C228.113 51.5195 228.117 51.5638 228.11 51.6072V55.6746H233.388V51.6072C233.388 51.3936 233.488 51.2818 233.688 51.2818L233.938 51.3631Z" fill="#292B2D" stroke="#292B2D" stroke-width="0.2" stroke-miterlimit="10"/>
<path d="M238.356 60.7595C238.36 60.8007 238.356 60.8425 238.343 60.8818C238.329 60.921 238.307 60.9566 238.279 60.986C238.25 61.0154 238.215 61.0377 238.176 61.0513C238.137 61.0649 238.096 61.0694 238.056 61.0645H237.796C237.755 61.0694 237.714 61.0649 237.676 61.0513C237.637 61.0377 237.602 61.0154 237.573 60.986C237.544 60.9566 237.522 60.921 237.509 60.8818C237.496 60.8425 237.491 60.8007 237.496 60.7595V51.6078C237.491 51.5665 237.496 51.5247 237.509 51.4855C237.522 51.4462 237.544 51.4106 237.573 51.3812C237.602 51.3518 237.637 51.3295 237.676 51.3159C237.714 51.3023 237.755 51.2978 237.796 51.3027H238.046C238.086 51.2978 238.127 51.3023 238.166 51.3159C238.205 51.3295 238.24 51.3518 238.268 51.3812C238.297 51.4106 238.319 51.4462 238.333 51.4855C238.346 51.5247 238.35 51.5665 238.346 51.6078L238.356 60.7595Z" fill="#292B2D" stroke="#292B2D" stroke-width="0.2" stroke-miterlimit="10"/>
<path d="M247.251 51.3631C247.295 51.3583 247.338 51.3634 247.379 51.378C247.42 51.3926 247.457 51.4165 247.488 51.4477C247.519 51.4789 247.542 51.5168 247.557 51.5585C247.571 51.6002 247.576 51.6446 247.571 51.6885V51.8919C247.571 52.0952 247.461 52.1969 247.251 52.1969H244.562V60.7589C244.562 60.9622 244.463 61.0639 244.253 61.0639H244.043C244.002 61.0688 243.961 61.0643 243.922 61.0507C243.884 61.0371 243.849 61.0148 243.82 60.9854C243.791 60.956 243.769 60.9204 243.756 60.8812C243.742 60.8419 243.738 60.8001 243.743 60.7589V52.1969H241.044C241.003 52.2018 240.962 52.1973 240.924 52.1837C240.885 52.1701 240.85 52.1478 240.821 52.1184C240.792 52.0891 240.77 52.0534 240.757 52.0142C240.744 51.9749 240.739 51.9331 240.744 51.8919V51.6885C240.744 51.475 240.844 51.3631 241.044 51.3631H247.251Z" fill="#292B2D" stroke="#292B2D" stroke-width="0.2" stroke-miterlimit="10"/>
<path d="M255.647 60.2607C255.69 60.2555 255.733 60.2604 255.774 60.2751C255.815 60.2897 255.851 60.3138 255.881 60.3453C255.911 60.3768 255.934 60.4149 255.947 60.4566C255.96 60.4984 255.964 60.5427 255.957 60.586V60.7589C255.957 60.9623 255.857 61.064 255.647 61.064H250.21C250.168 61.0706 250.126 61.0674 250.086 61.0545C250.046 61.0417 250.01 61.0196 249.98 60.9901C249.95 60.9605 249.927 60.9242 249.913 60.8841C249.899 60.844 249.894 60.8011 249.9 60.7589V51.6072C249.893 51.5638 249.897 51.5195 249.91 51.4778C249.923 51.436 249.945 51.3979 249.975 51.3664C250.005 51.3349 250.042 51.3109 250.083 51.2962C250.123 51.2815 250.167 51.2766 250.21 51.2818H255.537C255.58 51.2766 255.623 51.2815 255.664 51.2962C255.705 51.3109 255.742 51.3349 255.771 51.3664C255.801 51.3979 255.824 51.436 255.837 51.4778C255.85 51.5195 255.854 51.5638 255.847 51.6072V51.8106C255.847 52.0139 255.747 52.1156 255.537 52.1156H250.769V55.6645H255.237C255.28 55.6574 255.323 55.6607 255.364 55.6741C255.404 55.6874 255.442 55.7105 255.472 55.7413C255.502 55.7721 255.525 55.8098 255.538 55.8512C255.551 55.8927 255.554 55.9367 255.547 55.9797V56.1932C255.547 56.3966 255.447 56.4983 255.237 56.4983H250.769V60.1793L255.647 60.2607Z" fill="#292B2D" stroke="#292B2D" stroke-width="0.2" stroke-miterlimit="10"/>
<path d="M259.037 55.0642C259.037 55.8268 259.037 56.6098 259.037 57.403C258.991 58.2591 259.278 59.0993 259.836 59.7417C260.107 59.989 260.423 60.1792 260.766 60.3014C261.109 60.4236 261.473 60.4753 261.835 60.4535C262.171 60.4525 262.506 60.4184 262.835 60.3519C263.124 60.2858 263.399 60.1651 263.645 59.996C263.883 59.8186 264.084 59.5937 264.235 59.335C264.416 59.0188 264.547 58.6757 264.624 58.3181C264.626 58.2298 264.662 58.1458 264.724 58.0843C264.783 58.0431 264.853 58.0218 264.924 58.0233H265.194C265.271 58.0237 265.346 58.0526 265.404 58.1046C265.434 58.128 265.458 58.1593 265.472 58.1951C265.486 58.2309 265.49 58.2699 265.484 58.308C265.457 58.6576 265.376 59.0008 265.244 59.3248C265.106 59.7071 264.888 60.0542 264.604 60.3417C264.279 60.6521 263.899 60.8971 263.485 61.0637C262.959 61.267 262.398 61.3637 261.835 61.3484C261.289 61.3643 260.745 61.2675 260.236 61.0637C259.813 60.8861 259.431 60.6193 259.117 60.2807C258.82 59.9333 258.596 59.5287 258.457 59.091C258.303 58.6005 258.219 58.0904 258.207 57.5758C258.207 57.1996 258.207 56.7929 258.207 56.3556C258.207 55.9184 258.207 55.5015 258.207 55.1049C258.221 54.5938 258.305 54.0873 258.457 53.5999C258.596 53.1622 258.82 52.7576 259.117 52.4102C259.426 52.0655 259.809 51.7977 260.236 51.6272C260.745 51.4234 261.289 51.3266 261.835 51.3425C262.398 51.3271 262.959 51.4239 263.485 51.6272C263.903 51.786 264.285 52.0319 264.604 52.3492C264.892 52.6329 265.111 52.9811 265.244 53.3661C265.378 53.6894 265.459 54.0329 265.484 54.3829C265.489 54.4209 265.484 54.4596 265.47 54.4952C265.456 54.5308 265.433 54.5622 265.404 54.5863C265.345 54.6355 265.27 54.6608 265.194 54.6575H264.924C264.853 54.659 264.783 54.6376 264.724 54.5964C264.664 54.5374 264.629 54.4575 264.624 54.3727C264.549 54.0146 264.418 53.6712 264.235 53.3559C264.087 53.095 263.886 52.8696 263.645 52.6949C263.401 52.5216 263.126 52.4006 262.835 52.339C262.507 52.2674 262.171 52.2333 261.835 52.2373C261.104 52.194 260.386 52.4462 259.836 52.939C259.329 53.5278 259.046 54.2815 259.037 55.0642Z" fill="#292B2D" stroke="#292B2D" stroke-width="0.2" stroke-miterlimit="10"/>
<path d="M273.801 51.3631C273.844 51.3583 273.888 51.3634 273.929 51.378C273.97 51.3926 274.007 51.4165 274.038 51.4477C274.068 51.4789 274.092 51.5168 274.106 51.5585C274.12 51.6002 274.125 51.6446 274.121 51.6885V51.8919C274.121 52.0952 274.011 52.1969 273.801 52.1969H271.112V60.7589C271.112 60.9622 271.012 61.0639 270.802 61.0639H270.552C270.512 61.0688 270.471 61.0643 270.432 61.0507C270.393 61.0371 270.358 61.0148 270.329 60.9854C270.301 60.956 270.279 60.9204 270.265 60.8812C270.252 60.8419 270.248 60.8001 270.252 60.7589V52.1969H267.543C267.503 52.2018 267.462 52.1973 267.423 52.1837C267.385 52.1701 267.35 52.1478 267.321 52.1184C267.292 52.0891 267.27 52.0534 267.257 52.0142C267.243 51.9749 267.239 51.9331 267.244 51.8919V51.6885C267.244 51.475 267.344 51.3631 267.543 51.3631H273.801Z" fill="#292B2D" stroke="#292B2D" stroke-width="0.2" stroke-miterlimit="10"/>
<path d="M282.547 51.6885C282.542 51.6446 282.547 51.6002 282.562 51.5585C282.576 51.5168 282.6 51.4789 282.63 51.4477C282.661 51.4165 282.698 51.3926 282.739 51.378C282.78 51.3634 282.824 51.3583 282.867 51.3631H283.107C283.307 51.3631 283.407 51.475 283.407 51.6885V57.332C283.502 58.4053 283.175 59.4732 282.497 60.3013C282.148 60.6272 281.738 60.878 281.292 61.0387C280.845 61.1995 280.371 61.2669 279.898 61.2368C279.393 61.2432 278.889 61.1642 278.409 61.0029C277.989 60.8631 277.608 60.6225 277.299 60.3013C276.985 59.9504 276.75 59.534 276.61 59.081C276.439 58.5147 276.358 57.9243 276.37 57.332V51.6885C276.37 51.475 276.47 51.3631 276.67 51.3631H276.92C276.963 51.3583 277.006 51.3634 277.047 51.378C277.088 51.3926 277.126 51.4165 277.156 51.4477C277.187 51.4789 277.21 51.5168 277.225 51.5585C277.239 51.6002 277.244 51.6446 277.239 51.6885V57.3727C277.17 58.2039 277.425 59.0295 277.949 59.6708C278.208 59.9212 278.514 60.1152 278.85 60.2411C279.185 60.367 279.542 60.4221 279.898 60.403C280.254 60.4225 280.609 60.3675 280.943 60.2416C281.276 60.1157 281.581 59.9214 281.838 59.6708C282.099 59.3544 282.296 58.9884 282.418 58.594C282.54 58.1995 282.584 57.7845 282.547 57.3727V51.6885Z" fill="#292B2D" stroke="#292B2D" stroke-width="0.2" stroke-miterlimit="10"/>
<path d="M290.023 51.3631C290.843 51.3189 291.653 51.567 292.312 52.0647C292.608 52.3223 292.84 52.647 292.989 53.0127C293.139 53.3784 293.201 53.7747 293.172 54.1696C293.207 54.8125 293.016 55.4471 292.632 55.9593C292.235 56.4228 291.697 56.7378 291.103 56.8541L293.302 60.6673C293.316 60.7172 293.316 60.77 293.302 60.8199C293.304 60.8561 293.297 60.8922 293.283 60.9256C293.27 60.9591 293.249 60.9889 293.222 61.0131C293.172 61.0647 293.104 61.0939 293.032 61.0944H292.872C292.811 61.0998 292.75 61.0926 292.691 61.0734C292.633 61.0542 292.579 61.0233 292.532 60.9826C292.459 60.9047 292.398 60.8155 292.352 60.7182L290.173 56.9863H287.364V60.7589C287.364 60.9622 287.254 61.0639 287.045 61.0639H286.805C286.764 61.0688 286.723 61.0643 286.684 61.0507C286.646 61.0371 286.611 61.0148 286.582 60.9854C286.553 60.9561 286.531 60.9204 286.518 60.8812C286.504 60.8419 286.5 60.8001 286.505 60.7589V51.6071C286.505 51.3936 286.605 51.2817 286.805 51.2817L290.023 51.3631ZM287.404 56.1423H290.023C291.593 56.1423 292.382 55.4915 292.382 54.1696C292.382 52.8477 291.593 52.1969 290.023 52.1969H287.474L287.404 56.1423Z" fill="#292B2D" stroke="#292B2D" stroke-width="0.2" stroke-miterlimit="10"/>
<path d="M301.749 60.2604C301.792 60.2556 301.836 60.2607 301.877 60.2753C301.918 60.2899 301.955 60.3138 301.986 60.345C302.016 60.3762 302.04 60.4141 302.054 60.4558C302.068 60.4974 302.073 60.5419 302.069 60.5858V60.7587C302.069 60.962 301.959 61.0637 301.749 61.0637H296.311C296.271 61.0686 296.229 61.0641 296.191 61.0505C296.152 61.0369 296.117 61.0146 296.088 60.9852C296.059 60.9559 296.038 60.9202 296.024 60.881C296.011 60.8417 296.006 60.7999 296.011 60.7587V51.607C296.011 51.3934 296.111 51.2816 296.311 51.2816H301.639C301.682 51.2767 301.726 51.2818 301.767 51.2965C301.808 51.3111 301.845 51.3349 301.876 51.3662C301.906 51.3974 301.93 51.4352 301.944 51.4769C301.958 51.5186 301.963 51.563 301.959 51.607V51.8103C301.959 52.0137 301.849 52.1154 301.639 52.1154H296.871V55.6642H301.339C301.382 55.6576 301.425 55.6612 301.466 55.6745C301.507 55.6879 301.545 55.7107 301.576 55.7412C301.607 55.7717 301.63 55.8091 301.645 55.8504C301.659 55.8917 301.664 55.9359 301.659 55.9794V56.193C301.659 56.3963 301.549 56.498 301.339 56.498H296.871V60.179L301.749 60.2604Z" fill="#292B2D" stroke="#292B2D" stroke-width="0.2" stroke-miterlimit="10"/>
<path d="M314.633 51.231C315.113 51.219 315.59 51.2948 316.043 51.4547C316.409 51.5864 316.748 51.7864 317.042 52.0444C317.29 52.2637 317.494 52.5296 317.642 52.8274C317.773 53.0861 317.848 53.3705 317.862 53.6612C317.864 53.6995 317.857 53.7377 317.843 53.7732C317.829 53.8087 317.807 53.8406 317.78 53.8667C317.752 53.8928 317.719 53.9125 317.683 53.9245C317.648 53.9364 317.61 53.9403 317.572 53.9358H317.302C317.246 53.9468 317.189 53.9468 317.132 53.9358C317.087 53.9035 317.051 53.8586 317.03 53.8063C317.009 53.754 317.003 53.6966 317.012 53.6409C316.981 53.408 316.9 53.1849 316.776 52.9866C316.651 52.7883 316.487 52.6196 316.293 52.4919C315.803 52.1704 315.226 52.0139 314.643 52.0444C314.331 52.0427 314.02 52.0734 313.714 52.136C313.459 52.1963 313.216 52.2994 312.994 52.441C312.8 52.5747 312.64 52.7522 312.524 52.9596C312.403 53.1906 312.344 53.4504 312.354 53.7121C312.348 53.9549 312.399 54.1957 312.504 54.4137C312.627 54.6277 312.799 54.809 313.004 54.9425C313.274 55.1221 313.562 55.2721 313.864 55.3899C314.214 55.5323 314.633 55.6746 315.123 55.8373C315.574 55.9771 316.018 56.14 316.453 56.3254C316.792 56.4634 317.112 56.6481 317.402 56.8745C317.638 57.0673 317.829 57.3103 317.962 57.5863C318.095 57.9076 318.157 58.2548 318.142 58.6032C318.161 58.9798 318.088 59.3553 317.929 59.696C317.77 60.0368 317.531 60.3321 317.232 60.5555C316.49 61.0626 315.606 61.309 314.713 61.2572C314.216 61.2656 313.72 61.1936 313.244 61.0436C312.851 60.9207 312.482 60.7279 312.154 60.4742C311.871 60.2638 311.635 59.9932 311.465 59.681C311.316 59.3948 311.231 59.079 311.215 58.7557C311.215 58.7196 311.221 58.6839 311.235 58.6507C311.249 58.6175 311.269 58.5874 311.295 58.5625C311.322 58.5336 311.354 58.5105 311.391 58.4948C311.427 58.4791 311.465 58.471 311.505 58.471H311.775C311.814 58.469 311.854 58.4762 311.89 58.492C311.926 58.5079 311.959 58.532 311.985 58.5625C312.028 58.6193 312.059 58.6853 312.074 58.7557C312.11 58.9632 312.181 59.1628 312.284 59.3455C312.403 59.5566 312.567 59.7374 312.764 59.8742C313.007 60.0503 313.278 60.1843 313.564 60.2708C313.937 60.3801 314.325 60.4315 314.713 60.4233C315.416 60.4906 316.12 60.315 316.713 59.9251C316.91 59.77 317.069 59.5691 317.175 59.3392C317.281 59.1093 317.331 58.857 317.322 58.6032C317.332 58.3563 317.27 58.112 317.142 57.9015C317.003 57.6894 316.819 57.5121 316.603 57.3829C316.306 57.2099 315.995 57.0635 315.673 56.9457C315.293 56.8033 314.853 56.6508 314.344 56.4881C313.915 56.3524 313.495 56.1928 313.084 56.0102C312.764 55.8706 312.468 55.682 312.204 55.4509C311.981 55.2546 311.806 55.0072 311.695 54.7289C311.575 54.4043 311.52 54.0585 311.535 53.7121C311.527 53.3612 311.599 53.0133 311.745 52.6952C311.883 52.3852 312.092 52.1132 312.354 51.9021C312.648 51.658 312.989 51.478 313.354 51.3733C313.771 51.2603 314.202 51.2123 314.633 51.231Z" fill="#292B2D" stroke="#292B2D" stroke-width="0.2" stroke-miterlimit="10"/>
<path d="M326.318 51.3631C326.362 51.3583 326.405 51.3634 326.446 51.378C326.487 51.3926 326.524 51.4165 326.555 51.4477C326.586 51.4789 326.609 51.5168 326.624 51.5585C326.638 51.6002 326.643 51.6446 326.638 51.6885V51.8919C326.638 52.0952 326.528 52.1969 326.318 52.1969H323.63V60.7589C323.63 60.9622 323.52 61.0639 323.31 61.0639H323.07C323.029 61.0688 322.988 61.0643 322.95 61.0507C322.911 61.0371 322.876 61.0148 322.847 60.9854C322.818 60.956 322.796 60.9204 322.783 60.8812C322.77 60.8419 322.765 60.8001 322.77 60.7589V52.1969H320.061C320.02 52.2018 319.979 52.1973 319.941 52.1837C319.902 52.1701 319.867 52.1478 319.838 52.1184C319.809 52.0891 319.788 52.0534 319.774 52.0142C319.761 51.9749 319.756 51.9331 319.761 51.8919V51.6885C319.761 51.475 319.861 51.3631 320.061 51.3631H326.318Z" fill="#292B2D" stroke="#292B2D" stroke-width="0.2" stroke-miterlimit="10"/>
<path d="M335.065 51.6882C335.058 51.6449 335.062 51.6006 335.075 51.5588C335.088 51.5171 335.11 51.479 335.14 51.4475C335.17 51.416 335.207 51.3919 335.248 51.3773C335.288 51.3626 335.332 51.3577 335.375 51.3628H335.625C335.824 51.3628 335.924 51.4747 335.924 51.6882V57.3318C336.02 58.405 335.693 59.4729 335.015 60.301C334.665 60.6259 334.255 60.8761 333.809 61.0368C333.362 61.1975 332.889 61.2654 332.416 61.2365C331.91 61.243 331.407 61.1639 330.927 61.0026C330.507 60.8629 330.126 60.6222 329.817 60.301C329.503 59.9501 329.267 59.5337 329.127 59.0808C328.957 58.5144 328.876 57.924 328.887 57.3318V51.6882C328.887 51.4747 328.987 51.3628 329.187 51.3628H329.437C329.48 51.3577 329.523 51.3626 329.564 51.3773C329.605 51.3919 329.641 51.416 329.671 51.4475C329.701 51.479 329.724 51.5171 329.737 51.5588C329.75 51.6006 329.753 51.6449 329.747 51.6882V57.3725C329.712 57.7849 329.757 58.2004 329.881 58.5948C330.004 58.9893 330.203 59.3549 330.467 59.6706C331.009 60.1405 331.698 60.3986 332.411 60.3986C333.123 60.3986 333.813 60.1405 334.355 59.6706C334.879 59.0292 335.134 58.2036 335.065 57.3725V51.6882Z" fill="#292B2D" stroke="#292B2D" stroke-width="0.2" stroke-miterlimit="10"/>
<path d="M342.312 51.3633C342.92 51.3476 343.528 51.4299 344.111 51.6074C344.551 51.7455 344.95 51.9937 345.271 52.3294C345.569 52.6668 345.784 53.0709 345.9 53.5089C346.037 54.0332 346.108 54.5731 346.11 55.1156C346.11 55.5325 346.11 55.9087 346.11 56.2239C346.11 56.5392 346.11 56.9154 346.11 57.3323C346.102 57.8951 346.028 58.4549 345.89 58.9999C345.79 59.4368 345.58 59.8398 345.281 60.1693C344.967 60.4996 344.574 60.7413 344.141 60.871C343.566 61.0348 342.969 61.1102 342.372 61.0947H339.373C339.333 61.0996 339.291 61.0951 339.253 61.0815C339.214 61.0679 339.179 61.0456 339.15 61.0162C339.121 60.9868 339.1 60.9512 339.086 60.9119C339.073 60.8727 339.068 60.8309 339.073 60.7896V51.6379C339.073 51.4244 339.173 51.3125 339.373 51.3125L342.312 51.3633ZM345.241 55.1867C345.247 54.7401 345.19 54.2948 345.071 53.8648C344.977 53.5135 344.799 53.1918 344.551 52.9293C344.289 52.6722 343.97 52.4837 343.621 52.3802C343.173 52.2481 342.708 52.1863 342.242 52.1972H340.003V60.2609H342.362C342.824 60.2724 343.285 60.2177 343.731 60.0982C344.069 60.0047 344.378 59.8264 344.631 59.5796C344.865 59.316 345.033 58.9984 345.121 58.6542C345.241 58.2003 345.299 57.7313 345.291 57.2611C345.291 57.0578 345.291 56.8747 345.291 56.7019C345.291 56.529 345.291 56.3765 345.291 56.2239C345.291 56.0714 345.291 55.9189 345.291 55.7562C345.291 55.5935 345.241 55.4003 345.241 55.1867Z" fill="#292B2D" stroke="#292B2D" stroke-width="0.2" stroke-miterlimit="10"/>
<path d="M349.889 60.7595C349.894 60.8007 349.889 60.8425 349.876 60.8818C349.863 60.921 349.841 60.9566 349.812 60.986C349.783 61.0154 349.748 61.0377 349.709 61.0513C349.671 61.0649 349.63 61.0694 349.589 61.0645H349.329C349.289 61.0694 349.247 61.0649 349.209 61.0513C349.17 61.0377 349.135 61.0154 349.106 60.986C349.078 60.9566 349.056 60.921 349.042 60.8818C349.029 60.8425 349.024 60.8007 349.029 60.7595V51.6078C349.024 51.5665 349.029 51.5247 349.042 51.4855C349.056 51.4462 349.078 51.4106 349.106 51.3812C349.135 51.3518 349.17 51.3295 349.209 51.3159C349.247 51.3023 349.289 51.2978 349.329 51.3027H349.589C349.63 51.2978 349.671 51.3023 349.709 51.3159C349.748 51.3295 349.783 51.3518 349.812 51.3812C349.841 51.4106 349.863 51.4462 349.876 51.4855C349.889 51.5247 349.894 51.5665 349.889 51.6078V60.7595Z" fill="#292B2D" stroke="#292B2D" stroke-width="0.2" stroke-miterlimit="10"/>
<path d="M356.386 51.231C356.876 51.2217 357.363 51.3009 357.826 51.4648C358.251 51.6106 358.638 51.8542 358.955 52.1766C359.283 52.5185 359.535 52.9276 359.695 53.3765C359.892 53.9169 359.993 54.4883 359.995 55.0645C359.995 55.4814 359.995 55.8678 359.995 56.2339C359.995 56.6 359.995 56.9864 359.995 57.4033C360.047 58.4651 359.688 59.5053 358.995 60.3013C358.248 60.9069 357.321 61.2366 356.366 61.2366C355.411 61.2366 354.484 60.9069 353.737 60.3013C353.045 59.5053 352.686 58.4651 352.738 57.4033C352.738 56.9864 352.738 56.5898 352.738 56.2339C352.738 55.878 352.738 55.4814 352.738 55.0645C352.741 54.4894 352.839 53.9189 353.028 53.3765C353.188 52.9276 353.44 52.5185 353.767 52.1766C354.084 51.8577 354.466 51.6146 354.887 51.4648C355.369 51.2945 355.877 51.2152 356.386 51.231ZM356.386 52.0648C356.023 52.0577 355.66 52.1162 355.317 52.2377C354.99 52.3464 354.695 52.5349 354.457 52.7868C354.195 53.0565 353.997 53.3834 353.877 53.7426C353.727 54.1914 353.646 54.6615 353.638 55.1357C353.638 55.3492 353.638 55.5424 353.638 55.7153C353.638 55.8882 353.638 56.061 353.638 56.2339C353.638 56.4068 353.638 56.5695 353.638 56.7525C353.638 56.9355 353.638 57.1287 353.638 57.3321C353.645 57.8064 353.726 58.2766 353.877 58.7252C354 59.0807 354.194 59.4063 354.447 59.681C354.691 59.9262 354.984 60.1136 355.307 60.2302C355.655 60.3482 356.02 60.4067 356.386 60.403C356.753 60.405 357.118 60.3466 357.466 60.2302C357.785 60.1111 358.074 59.9239 358.316 59.681C358.569 59.4063 358.763 59.0807 358.885 58.7252C359.047 58.2792 359.128 57.8073 359.125 57.3321C359.125 57.1287 359.125 56.9355 359.125 56.7525V55.6746C359.125 55.5018 359.125 55.3086 359.125 55.095C359.126 54.62 359.045 54.1485 358.885 53.7019C358.766 53.3427 358.568 53.0159 358.306 52.7461C358.067 52.4943 357.772 52.3057 357.446 52.197C357.103 52.0901 356.744 52.0453 356.386 52.0648Z" fill="#292B2D" stroke="#292B2D" stroke-width="0.2" stroke-miterlimit="10"/>
</svg>
