<svg width="56" height="62" viewBox="0 0 56 62" fill="none" xmlns="http://www.w3.org/2000/svg">
<path d="M27.9849 1V30.8492" stroke="#292B2D" stroke-width="1.0037" stroke-miterlimit="10" stroke-linecap="round"/>
<path d="M54.6683 11.6282L27.9849 30.8493" stroke="#292B2D" stroke-width="1.0037" stroke-miterlimit="10" stroke-linecap="round"/>
<path d="M48.7137 33.1107L42.0806 30.8494" stroke="#292B2D" stroke-width="1.0037" stroke-miterlimit="10" stroke-linecap="round"/>
<path d="M54.6681 11.6282L48.7134 33.1106" stroke="#292B2D" stroke-width="1.0037" stroke-miterlimit="10" stroke-linecap="round"/>
<path d="M54.6685 11.6282L54.97 44.6432" stroke="#292B2D" stroke-width="1.0037" stroke-miterlimit="10" stroke-linecap="round"/>
<path d="M54.9698 44.6431L27.9849 60.9999" stroke="#292B2D" stroke-width="1.0037" stroke-miterlimit="10" stroke-linecap="round"/>
<path d="M44.1157 51.2012V56.1007" stroke="#292B2D" stroke-width="1.0037" stroke-miterlimit="10" stroke-linecap="round"/>
<path d="M48.7134 33.1106L54.9697 44.6433" stroke="#292B2D" stroke-width="1.0037" stroke-miterlimit="10" stroke-linecap="round"/>
<path d="M44.1154 56.1006H36.1255" stroke="#292B2D" stroke-width="1.0037" stroke-miterlimit="10" stroke-linecap="round"/>
<path d="M11.8545 51.2012V56.1007" stroke="#292B2D" stroke-width="1.0037" stroke-miterlimit="10" stroke-linecap="round"/>
<path d="M11.8545 56.1006H19.8444" stroke="#292B2D" stroke-width="1.0037" stroke-miterlimit="10" stroke-linecap="round"/>
<path d="M48.7135 33.1106L27.9849 61" stroke="#292B2D" stroke-width="1.0037" stroke-miterlimit="10" stroke-linecap="round"/>
<path d="M48.7136 33.1106H7.25635" stroke="#292B2D" stroke-width="1.0037" stroke-miterlimit="10" stroke-linecap="round"/>
<path d="M27.9849 1L54.6683 11.6281" stroke="#292B2D" stroke-width="1.0037" stroke-miterlimit="10" stroke-linecap="round"/>
<path d="M1.30176 11.6282L27.9852 30.8493" stroke="#292B2D" stroke-width="1.0037" stroke-miterlimit="10" stroke-linecap="round"/>
<path d="M13.8892 30.8494H42.0801" stroke="#292B2D" stroke-width="1.0037" stroke-miterlimit="10" stroke-linecap="round"/>
<path d="M7.25635 33.1107L13.8895 30.8494" stroke="#292B2D" stroke-width="1.0037" stroke-miterlimit="10" stroke-linecap="round"/>
<path d="M1.30176 11.6282L7.25653 33.1106" stroke="#292B2D" stroke-width="1.0037" stroke-miterlimit="10" stroke-linecap="round"/>
<path d="M1.30151 11.6282L1 44.6432" stroke="#292B2D" stroke-width="1.0037" stroke-miterlimit="10" stroke-linecap="round"/>
<path d="M1 44.6431L27.9849 60.9999" stroke="#292B2D" stroke-width="1.0037" stroke-miterlimit="10" stroke-linecap="round"/>
<path d="M7.25628 33.1106L1 44.6433" stroke="#292B2D" stroke-width="1.0037" stroke-miterlimit="10" stroke-linecap="round"/>
<path d="M7.25635 33.1106L27.985 61" stroke="#292B2D" stroke-width="1.0037" stroke-miterlimit="10" stroke-linecap="round"/>
<path d="M27.9852 1L1.30176 11.6281" stroke="#292B2D" stroke-width="1.0037" stroke-miterlimit="10" stroke-linecap="round"/>
</svg>
