<svg width="62" height="51" viewBox="0 0 62 51" fill="none" xmlns="http://www.w3.org/2000/svg">
<path d="M32.7113 28.6172L29.1675 39.0042" stroke="#292B2D" stroke-width="1.0037" stroke-miterlimit="10" stroke-linecap="round"/>
<path d="M32.7114 28.6172L36.2552 39.0042" stroke="#292B2D" stroke-width="1.0037" stroke-miterlimit="10" stroke-linecap="round"/>
<path d="M29.1675 39.0042H36.2551" stroke="#292B2D" stroke-width="1.0037" stroke-miterlimit="10" stroke-linecap="round"/>
<path d="M29.1675 39.0042V49.6355" stroke="#292B2D" stroke-width="1.0037" stroke-miterlimit="10" stroke-linecap="round"/>
<path d="M36.2549 39.0042V49.6355" stroke="#292B2D" stroke-width="1.0037" stroke-miterlimit="10" stroke-linecap="round"/>
<path d="M12.4258 41.8757H29.1671" stroke="#292B2D" stroke-width="1.0037" stroke-miterlimit="10" stroke-linecap="round"/>
<path d="M12.4258 5.09375V41.8759" stroke="#292B2D" stroke-width="1.0037" stroke-miterlimit="10" stroke-linecap="round"/>
<path d="M49.5742 5.09375V41.8759" stroke="#292B2D" stroke-width="1.0037" stroke-miterlimit="10" stroke-linecap="round"/>
<path d="M12.4258 5.09375H49.5745" stroke="#292B2D" stroke-width="1.0037" stroke-miterlimit="10" stroke-linecap="round"/>
<path d="M16.3359 14.2585V22.507" stroke="#292B2D" stroke-width="1.0037" stroke-miterlimit="10" stroke-linecap="round"/>
<path d="M28.6172 14.2585V22.507" stroke="#292B2D" stroke-width="1.0037" stroke-miterlimit="10" stroke-linecap="round"/>
<path d="M16.8247 14.2585H28.617" stroke="#292B2D" stroke-width="1.0037" stroke-miterlimit="10" stroke-linecap="round"/>
<path d="M16.3359 22.5071H28.1893" stroke="#292B2D" stroke-width="1.0037" stroke-miterlimit="10" stroke-linecap="round"/>
<path d="M32.7109 16.8245V29.3499" stroke="#292B2D" stroke-width="1.0037" stroke-miterlimit="10" stroke-linecap="round"/>
<path d="M45.1758 16.8245V41.8754" stroke="#292B2D" stroke-width="1.0037" stroke-miterlimit="10" stroke-linecap="round"/>
<path d="M32.7109 16.8245H45.1753" stroke="#292B2D" stroke-width="1.0037" stroke-miterlimit="10" stroke-linecap="round"/>
<path d="M3.01611 1L12.4255 5.09369" stroke="#292B2D" stroke-width="1.0037" stroke-miterlimit="10" stroke-linecap="round"/>
<path d="M1 49.6354L12.4257 41.8757" stroke="#292B2D" stroke-width="1.0037" stroke-miterlimit="10" stroke-linecap="round"/>
<path d="M58.9836 1L49.5742 5.09369" stroke="#292B2D" stroke-width="1.0037" stroke-miterlimit="10" stroke-linecap="round"/>
<path d="M60.9999 49.6354L49.5742 41.8757" stroke="#292B2D" stroke-width="1.0037" stroke-miterlimit="10" stroke-linecap="round"/>
<path d="M12.4258 41.8757H29.1671" stroke="#292B2D" stroke-width="1.0037" stroke-miterlimit="10" stroke-linecap="round"/>
<path d="M36.2549 41.8757H49.5747" stroke="#292B2D" stroke-width="1.0037" stroke-miterlimit="10" stroke-linecap="round"/>
</svg>
