<svg width="62" height="61" viewBox="0 0 62 61" fill="none" xmlns="http://www.w3.org/2000/svg">
<path d="M57.7573 29.7466V59.7466" stroke="#292B2D" stroke-width="1.0037" stroke-miterlimit="10" stroke-linecap="round"/>
<path d="M4.31738 29.894V59.7466" stroke="#292B2D" stroke-width="1.0037" stroke-miterlimit="10" stroke-linecap="round"/>
<path d="M40.6567 29.894V59.7466" stroke="#292B2D" stroke-width="1.0037" stroke-miterlimit="10" stroke-linecap="round"/>
<path d="M4.31738 59.7466H57.7572" stroke="#292B2D" stroke-width="1.0037" stroke-miterlimit="10" stroke-linecap="round"/>
<path d="M31.4424 35.644V42.6465" stroke="#292B2D" stroke-width="1.0037" stroke-miterlimit="10" stroke-linecap="round"/>
<path d="M31.4418 42.6462L29.2305 45.8895" stroke="#292B2D" stroke-width="1.0037" stroke-miterlimit="10" stroke-linecap="round"/>
<path d="M23.2598 35.644V42.6465" stroke="#292B2D" stroke-width="1.0037" stroke-miterlimit="10" stroke-linecap="round"/>
<path d="M23.2598 42.6462L25.4711 45.8895" stroke="#292B2D" stroke-width="1.0037" stroke-miterlimit="10" stroke-linecap="round"/>
<path d="M29.2304 45.8896V53.5555C29.2304 54.5874 28.4196 55.3982 27.3877 55.3982C26.3557 55.3982 25.5449 54.5874 25.5449 53.5555V45.8896" stroke="#292B2D" stroke-width="1.0037" stroke-miterlimit="10" stroke-linecap="round"/>
<path d="M19.6489 35.4226V53.5553C19.6489 54.5872 18.8381 55.398 17.8061 55.398C16.7742 55.398 15.9634 54.5872 15.9634 53.5553V48.3219" stroke="#292B2D" stroke-width="1.0037" stroke-miterlimit="10" stroke-linecap="round"/>
<path d="M27.3882 35.4226V42.4251" stroke="#292B2D" stroke-width="1.0037" stroke-miterlimit="10" stroke-linecap="round"/>
<path d="M19.6489 35.4229C19.6489 35.4229 15.9634 38.5187 14.268 41.3197C12.8675 43.7521 13.6046 46.4057 14.0469 47.1428C14.7103 48.3221 15.8896 48.3958 15.8896 48.3958" stroke="#292B2D" stroke-width="1.0037" stroke-miterlimit="10" stroke-linecap="round"/>
<path d="M10.8037 1V9.40295" stroke="#292B2D" stroke-width="1.0037" stroke-miterlimit="10" stroke-linecap="round"/>
<path d="M51.2705 1H10.8037" stroke="#292B2D" stroke-width="1.0037" stroke-miterlimit="10" stroke-linecap="round"/>
<path d="M51.2705 1V9.18182" stroke="#292B2D" stroke-width="1.0037" stroke-miterlimit="10" stroke-linecap="round"/>
<path d="M10.8037 9.18237H51.2705" stroke="#292B2D" stroke-width="1.0037" stroke-miterlimit="10" stroke-linecap="round"/>
<path d="M10.8034 9.40259L1 19.1323" stroke="#292B2D" stroke-width="1.0037" stroke-miterlimit="10" stroke-linecap="round"/>
<path d="M51.2705 9.40259L61.0002 19.1323" stroke="#292B2D" stroke-width="1.0037" stroke-miterlimit="10" stroke-linecap="round"/>
<path d="M1 19.1328H61" stroke="#292B2D" stroke-width="1.0037" stroke-miterlimit="10" stroke-linecap="round"/>
<path d="M1 19.1328V24.3662" stroke="#292B2D" stroke-width="1.0037" stroke-miterlimit="10" stroke-linecap="round"/>
<path d="M61 19.1328V24.3662" stroke="#292B2D" stroke-width="1.0037" stroke-miterlimit="10" stroke-linecap="round"/>
<path d="M13.0152 24.366C13.0152 27.6829 10.3617 30.3365 7.04473 30.3365C3.72778 30.3365 1.07422 27.6829 1.07422 24.366" stroke="#292B2D" stroke-width="1.0037" stroke-miterlimit="10" stroke-linecap="round"/>
<path d="M24.9557 24.366C24.9557 27.6829 22.3021 30.3365 18.9852 30.3365C15.6682 30.3365 13.0146 27.6829 13.0146 24.366" stroke="#292B2D" stroke-width="1.0037" stroke-miterlimit="10" stroke-linecap="round"/>
<path d="M37.0446 24.366C37.0446 27.6829 34.391 30.3365 31.074 30.3365C27.7571 30.3365 25.1035 27.6829 25.1035 24.366" stroke="#292B2D" stroke-width="1.0037" stroke-miterlimit="10" stroke-linecap="round"/>
<path d="M49.0582 24.366C49.0582 27.6829 46.4047 30.3365 43.0877 30.3365C39.7707 30.3365 37.1172 27.6829 37.1172 24.366" stroke="#292B2D" stroke-width="1.0037" stroke-miterlimit="10" stroke-linecap="round"/>
<path d="M60.9996 24.366C60.9996 27.6829 58.3461 30.3365 55.0291 30.3365C51.7122 30.3365 49.0586 27.6829 49.0586 24.366" stroke="#292B2D" stroke-width="1.0037" stroke-miterlimit="10" stroke-linecap="round"/>
</svg>
