<svg width="266" height="266" viewBox="0 0 266 266" fill="none" xmlns="http://www.w3.org/2000/svg">
<path d="M106.141 88.708H173.811C174.735 88.708 175.62 89.075 176.273 89.728C176.926 90.381 177.293 91.266 177.293 92.19V159.86C177.293 164.484 175.456 168.918 172.187 172.188C168.917 175.457 164.483 177.294 159.859 177.294H92.189C91.265 177.294 90.38 176.927 89.727 176.274C89.074 175.621 88.707 174.735 88.707 173.812V106.142C88.707 103.853 89.158 101.586 90.034 99.47C90.91 97.355 92.194 95.433 93.813 93.814C95.432 92.195 97.354 90.911 99.469 90.035C101.585 89.159 103.852 88.708 106.141 88.708Z" fill="white"/>
<path d="M177.293 28.024V40.918C177.293 41.843 176.927 42.73 176.274 43.385C175.621 44.04 174.736 44.409 173.811 44.413H61.848C59.559 44.413 57.292 44.864 55.177 45.74C53.061 46.616 51.139 47.9 49.52 49.519C47.902 51.138 46.617 53.06 45.741 55.175C44.865 57.29 44.414 59.557 44.414 61.847V173.81C44.414 174.734 44.048 175.621 43.395 176.276C42.742 176.931 41.857 177.301 40.932 177.304H28.026C24.36 177.305 20.729 176.584 17.342 175.182C13.955 173.779 10.878 171.723 8.28598 169.13C5.69498 166.537 3.63898 163.459 2.23798 160.071C0.836978 156.684 0.117981 153.053 0.120981 149.387V17.554C0.120981 12.93 1.95798 8.49599 5.22698 5.22599C8.49698 1.95599 12.931 0.119999 17.555 0.119999H149.388C153.053 0.117999 156.683 0.838994 160.069 2.23999C163.455 3.64199 166.532 5.698 169.124 8.289C171.715 10.881 173.77 13.957 175.172 17.344C176.574 20.73 177.295 24.359 177.293 28.024Z" fill="white"/>
<path d="M88.707 237.975V225.069C88.707 224.145 89.074 223.26 89.727 222.607C90.38 221.954 91.265 221.587 92.189 221.587H204.152C208.775 221.584 213.207 219.746 216.476 216.477C219.745 213.208 221.583 208.776 221.586 204.153V92.19C221.586 91.266 221.953 90.381 222.606 89.728C223.259 89.075 224.144 88.708 225.068 88.708H237.974C241.639 88.706 245.269 89.427 248.655 90.829C252.041 92.231 255.118 94.286 257.709 96.877C260.301 99.469 262.356 102.546 263.758 105.932C265.16 109.318 265.881 112.948 265.879 116.613V248.446C265.876 253.069 264.038 257.501 260.769 260.77C257.5 264.039 253.068 265.877 248.445 265.88H116.612C112.947 265.882 109.317 265.161 105.931 263.759C102.545 262.357 99.468 260.302 96.876 257.71C94.285 255.119 92.23 252.042 90.828 248.656C89.426 245.27 88.705 241.64 88.707 237.975Z" fill="white"/>
</svg>
