<svg width="2058" height="295" viewBox="0 0 2058 295" fill="none" xmlns="http://www.w3.org/2000/svg">
<path d="M534.922 169.417H382.925C383.376 183.183 386.874 195.483 393.419 206.316C399.964 216.923 408.765 225.16 419.824 231.028C431.108 236.896 443.746 239.83 457.738 239.83C469.248 239.83 479.855 237.798 489.56 233.736C499.49 229.448 507.727 223.242 514.272 215.117L524.089 226.289C516.416 235.542 506.711 242.651 494.976 247.616C483.466 252.581 470.941 255.063 457.4 255.063C439.797 255.063 424.112 251.226 410.345 243.553C396.579 235.88 385.746 225.273 377.847 211.732C370.174 198.191 366.337 182.732 366.337 165.354C366.337 148.203 369.948 132.856 377.17 119.315C384.617 105.549 394.773 94.829 407.637 87.156C420.501 79.482 434.944 75.646 450.968 75.646C466.991 75.646 481.322 79.482 493.96 87.156C506.824 94.603 516.867 105.097 524.089 118.638C531.536 132.179 535.26 147.526 535.26 164.677L534.922 169.417ZM450.968 90.541C438.555 90.541 427.384 93.362 417.454 99.004C407.524 104.42 399.512 112.206 393.419 122.362C387.551 132.292 384.166 143.576 383.263 156.214H518.672C517.995 143.576 514.61 132.292 508.517 122.362C502.423 112.432 494.412 104.646 484.482 99.004C474.552 93.362 463.38 90.541 450.968 90.541ZM695.054 253.709L634.458 174.833L573.862 253.709H554.567L624.641 162.646L558.29 77H577.586L634.458 150.459L691.33 77H710.287L643.937 162.646L715.026 253.709H695.054ZM845.88 242.538C841.6 246.6 836.18 249.76 829.63 252.016C823.32 254.048 816.66 255.063 809.66 255.063C794.316 255.063 782.467 250.888 774.117 242.538C765.767 233.962 761.592 222.114 761.592 206.993V91.556H729.094V77H761.592V38.408H778.518V77H834.71V91.556H778.518V205.3C778.518 216.81 781.226 225.612 786.643 231.705C792.285 237.573 800.522 240.507 811.35 240.507C822.41 240.507 831.55 237.234 838.78 230.689L845.88 242.538ZM1036.09 169.417H884.1C884.55 183.183 888.05 195.483 894.59 206.316C901.14 216.923 909.94 225.16 921 231.028C932.28 236.896 944.92 239.83 958.91 239.83C970.42 239.83 981.03 237.798 990.73 233.736C1000.66 229.448 1008.9 223.242 1015.44 215.117L1025.26 226.289C1017.59 235.542 1007.88 242.651 996.15 247.616C984.64 252.581 972.11 255.063 958.57 255.063C940.97 255.063 925.28 251.226 911.52 243.553C897.75 235.88 886.92 225.273 879.02 211.732C871.35 198.191 867.51 182.732 867.51 165.354C867.51 148.203 871.12 132.856 878.34 119.315C885.79 105.549 895.95 94.829 908.81 87.156C921.67 79.482 936.12 75.646 952.14 75.646C968.16 75.646 982.49 79.482 995.13 87.156C1008 94.603 1018.04 105.097 1025.26 118.638C1032.71 132.179 1036.43 147.526 1036.43 164.677L1036.09 169.417ZM952.14 90.541C939.73 90.541 928.56 93.362 918.63 99.004C908.7 104.42 900.69 112.206 894.59 122.362C888.72 132.292 885.34 143.576 884.44 156.214H1019.85C1019.17 143.576 1015.78 132.292 1009.69 122.362C1003.6 112.432 995.58 104.646 985.65 99.004C975.72 93.362 964.55 90.541 952.14 90.541ZM1088.8 2.52499H1105.72V253.709H1088.8V2.52499ZM1236.64 75.646C1258.53 75.646 1275.35 81.288 1287.08 92.572C1298.82 103.63 1304.69 119.992 1304.69 141.658V253.709H1288.44V222.226C1282.79 232.608 1274.56 240.732 1263.72 246.6C1252.89 252.242 1239.92 255.063 1224.79 255.063C1205.16 255.063 1189.59 250.437 1178.08 241.184C1166.79 231.931 1161.15 219.744 1161.15 204.623C1161.15 189.954 1166.34 178.106 1176.72 169.078C1187.33 159.825 1204.14 155.199 1227.16 155.199H1287.76V140.981C1287.76 124.506 1283.25 111.981 1274.22 103.405C1265.42 94.829 1252.44 90.541 1235.29 90.541C1223.55 90.541 1212.27 92.572 1201.44 96.634C1190.83 100.697 1181.8 106.113 1174.35 112.883L1165.89 100.697C1174.69 92.798 1185.3 86.704 1197.71 82.416C1210.13 77.903 1223.1 75.646 1236.64 75.646ZM1227.16 241.184C1241.83 241.184 1254.25 237.798 1264.4 231.028C1274.78 224.257 1282.57 214.44 1287.76 201.576V168.401H1227.5C1210.13 168.401 1197.49 171.561 1189.59 177.88C1181.91 184.199 1178.08 192.888 1178.08 203.946C1178.08 215.456 1182.37 224.596 1190.94 231.366C1199.52 237.911 1211.59 241.184 1227.16 241.184Z" fill="white"/>
<path d="M106.463 117.374H174.133C175.056 117.374 175.942 117.741 176.595 118.394C177.248 119.047 177.615 119.932 177.615 120.856V188.526C177.615 193.15 175.778 197.584 172.508 200.854C169.239 204.123 164.804 205.96 160.181 205.96H92.511C91.587 205.96 90.702 205.593 90.049 204.94C89.396 204.287 89.029 203.402 89.029 202.478V134.808C89.029 132.519 89.48 130.252 90.356 128.136C91.232 126.021 92.516 124.099 94.135 122.48C95.754 120.861 97.676 119.577 99.791 118.701C101.906 117.825 104.174 117.374 106.463 117.374Z" fill="#FCFBFC"/>
<path d="M177.615 56.69V69.584C177.615 70.509 177.249 71.395 176.596 72.05C175.944 72.705 175.058 73.075 174.133 73.078H62.171C59.881 73.078 57.614 73.529 55.499 74.405C53.384 75.281 51.462 76.566 49.843 78.184C48.224 79.803 46.94 81.725 46.063 83.841C45.187 85.956 44.736 88.223 44.736 90.512V202.475C44.736 203.4 44.37 204.287 43.717 204.942C43.065 205.597 42.179 205.966 41.254 205.969H28.348C24.682 205.971 21.052 205.25 17.665 203.847C14.277 202.445 11.2 200.388 8.60801 197.796C6.01701 195.203 3.96201 192.124 2.56101 188.737C1.16001 185.349 0.440003 181.718 0.443003 178.052V46.219C0.443003 41.596 2.28001 37.161 5.55001 33.892C8.81901 30.622 13.254 28.785 17.878 28.785H149.711C153.376 28.784 157.005 29.504 160.391 30.906C163.778 32.308 166.854 34.363 169.446 36.955C172.037 39.546 174.093 42.623 175.494 46.009C176.896 49.395 177.617 53.025 177.615 56.69Z" fill="#FCFBFC"/>
<path d="M89.029 266.641V253.735C89.029 252.811 89.396 251.926 90.049 251.273C90.702 250.62 91.587 250.253 92.511 250.253H204.474C209.096 250.25 213.529 248.412 216.798 245.143C220.067 241.874 221.904 237.442 221.908 232.819V120.856C221.908 119.932 222.275 119.047 222.928 118.394C223.581 117.741 224.466 117.374 225.39 117.374H238.296C241.961 117.372 245.59 118.093 248.977 119.495C252.363 120.897 255.44 122.952 258.031 125.543C260.623 128.135 262.678 131.212 264.08 134.598C265.482 137.984 266.202 141.614 266.201 145.279V277.112C266.197 281.735 264.36 286.167 261.091 289.436C257.822 292.705 253.389 294.543 248.766 294.546H116.933C113.268 294.548 109.639 293.827 106.253 292.425C102.867 291.023 99.79 288.968 97.198 286.376C94.607 283.785 92.551 280.708 91.15 277.322C89.748 273.936 89.027 270.306 89.029 266.641Z" fill="#FCFBFC"/>
<path d="M1452.3 256.95C1437.18 256.95 1422.4 255.145 1407.96 251.534C1393.51 247.697 1382 242.958 1373.43 237.316L1391.03 199.401C1399.15 204.592 1408.97 208.88 1420.48 212.265C1431.99 215.425 1443.27 217.005 1454.33 217.005C1476.68 217.005 1487.85 211.475 1487.85 200.417C1487.85 195.226 1484.8 191.503 1478.71 189.246C1472.61 186.989 1463.25 185.071 1450.61 183.491C1435.71 181.234 1423.41 178.639 1413.71 175.705C1404.01 172.771 1395.54 167.58 1388.32 160.133C1381.33 152.685 1377.83 142.078 1377.83 128.312C1377.83 116.802 1381.1 106.646 1387.64 97.845C1394.41 88.817 1404.12 81.821 1416.76 76.856C1429.62 71.891 1444.74 69.409 1462.12 69.409C1474.98 69.409 1487.73 70.876 1500.37 73.809C1513.24 76.518 1523.84 80.354 1532.19 85.319L1514.59 122.895C1498.57 113.868 1481.08 109.354 1462.12 109.354C1450.84 109.354 1442.37 110.934 1436.73 114.094C1431.09 117.253 1428.27 121.315 1428.27 126.28C1428.27 131.923 1431.31 135.872 1437.41 138.129C1443.5 140.386 1453.2 142.53 1466.52 144.561C1481.42 147.043 1493.6 149.751 1503.08 152.685C1512.56 155.393 1520.8 160.471 1527.79 167.919C1534.79 175.366 1538.29 185.748 1538.29 199.063C1538.29 210.347 1534.9 220.39 1528.13 229.191C1521.36 237.993 1511.43 244.876 1498.34 249.841C1485.48 254.581 1470.13 256.95 1452.3 256.95ZM1657.53 256.95C1638.35 256.95 1621.08 253.001 1605.74 245.102C1590.62 236.978 1578.77 225.806 1570.19 211.588C1561.62 197.37 1557.33 181.234 1557.33 163.179C1557.33 145.125 1561.62 128.989 1570.19 114.771C1578.77 100.553 1590.62 89.494 1605.74 81.595C1621.08 73.471 1638.35 69.409 1657.53 69.409C1676.71 69.409 1693.87 73.471 1708.99 81.595C1724.11 89.494 1735.96 100.553 1744.53 114.771C1753.11 128.989 1757.4 145.125 1757.4 163.179C1757.4 181.234 1753.11 197.37 1744.53 211.588C1735.96 225.806 1724.11 236.978 1708.99 245.102C1693.87 253.001 1676.71 256.95 1657.53 256.95ZM1657.53 213.619C1671.07 213.619 1682.13 209.106 1690.71 200.079C1699.51 190.826 1703.91 178.526 1703.91 163.179C1703.91 147.833 1699.51 135.646 1690.71 126.619C1682.13 117.366 1671.07 112.74 1657.53 112.74C1643.99 112.74 1632.82 117.366 1624.02 126.619C1615.22 135.646 1610.82 147.833 1610.82 163.179C1610.82 178.526 1615.22 190.826 1624.02 200.079C1632.82 209.106 1643.99 213.619 1657.53 213.619ZM1850.58 76.179H1897.3V116.802H1851.94V254.242H1799.13V116.802H1771.03V76.179H1799.13V68.055C1799.13 47.292 1805.22 30.817 1817.41 18.63C1829.82 6.443 1847.2 0.350006 1869.54 0.350006C1877.44 0.350006 1884.89 1.25301 1891.88 3.05801C1899.1 4.63801 1905.08 7.00799 1909.82 10.167L1895.94 48.42C1889.85 44.132 1882.74 41.988 1874.62 41.988C1858.59 41.988 1850.58 50.79 1850.58 68.393V76.179ZM2058 245.441C2052.81 249.277 2046.38 252.211 2038.71 254.242C2031.26 256.048 2023.36 256.95 2015.01 256.95C1993.34 256.95 1976.53 251.421 1964.57 240.363C1952.83 229.304 1946.97 213.055 1946.97 191.615V116.802H1918.87V76.179H1946.97V31.833H1999.78V76.179H2045.14V116.802H1999.78V190.938C1999.78 198.612 2001.69 204.592 2005.53 208.88C2009.59 212.942 2015.23 214.974 2022.46 214.974C2030.81 214.974 2037.92 212.717 2043.78 208.203L2058 245.441Z" fill="#760593"/>
</svg>
