<svg width="30" height="30" viewBox="0 0 30 30" fill="none" xmlns="http://www.w3.org/2000/svg">
<rect width="30" height="30" rx="5" fill="white"/>
<path d="M7 8H9.03478V17.2348H14.7635V18.9565H7V8Z" fill="black"/>
<path d="M20.8504 16.3026C21.4557 16.5009 21.9357 16.8348 22.2904 17.3043C22.6452 17.7635 22.8226 18.3374 22.8226 19.0261C22.8226 19.9757 22.4574 20.7113 21.727 21.233C20.9965 21.7443 19.9322 22 18.5339 22H13.087V11.0435H18.2209C19.5148 11.0435 20.5113 11.2991 21.2104 11.8104C21.9096 12.3113 22.2591 13.0052 22.2591 13.8922C22.2591 14.4348 22.1339 14.9148 21.8835 15.3322C21.633 15.7496 21.2887 16.073 20.8504 16.3026ZM15.1217 12.64V15.6609H18.0017C18.7113 15.6609 19.2539 15.5357 19.6296 15.2852C20.0157 15.0243 20.2087 14.6487 20.2087 14.1583C20.2087 13.6574 20.0157 13.2817 19.6296 13.0313C19.2539 12.7704 18.7113 12.64 18.0017 12.64H15.1217ZM18.4087 20.4035C19.9843 20.4035 20.7722 19.8765 20.7722 18.8226C20.7722 17.7687 19.9843 17.2417 18.4087 17.2417H15.1217V20.4035H18.4087Z" fill="black"/>
</svg>
