<svg width="30" height="30" viewBox="0 0 30 30" fill="none" xmlns="http://www.w3.org/2000/svg">
<path d="M12.1344 13.6969C12.4062 13.5 12.5375 13.175 12.5375 12.7281C12.5469 12.5156 12.5031 12.3063 12.4094 12.1156C12.325 11.9625 12.2 11.8344 12.0469 11.7437C11.8881 11.6475 11.7118 11.5837 11.5281 11.5562C11.3281 11.5187 11.125 11.5 10.925 11.5031H8.72812V13.9937H11.1062C11.5156 13.9969 11.8625 13.8969 12.1344 13.6969ZM12.5031 15.9469C12.1969 15.7125 11.7875 15.5969 11.2781 15.5969H8.72188V18.5344H11.2281C11.4625 18.5344 11.6781 18.5125 11.8875 18.4688C12.0856 18.43 12.2744 18.3536 12.4438 18.2437C12.6031 18.1406 12.7312 18 12.8281 17.8188C12.9219 17.6375 12.9688 17.4062 12.9688 17.1281C12.9688 16.575 12.8125 16.1844 12.5031 15.9469ZM15 1C7.26875 1 1 7.26875 1 15C1 22.7313 7.26875 29 15 29C22.7313 29 29 22.7313 29 15C29 7.26875 22.7313 1 15 1ZM17.7031 9.96562H22.0281V11.0188H17.7031V9.96562ZM15 18.65C14.7977 19.034 14.5088 19.3657 14.1562 19.6187C13.7875 19.875 13.3781 20.0625 12.9438 20.1719C12.4893 20.2937 12.0205 20.3536 11.55 20.35H6.375V9.69063H11.4062C11.9156 9.69063 12.3781 9.7375 12.8 9.825C13.2188 9.9125 13.575 10.0625 13.875 10.2656C14.1719 10.4688 14.4062 10.7406 14.5719 11.0781C14.7344 11.4125 14.8188 11.8313 14.8188 12.3281C14.8188 12.8656 14.6969 13.3094 14.4531 13.6687C14.2063 14.0281 13.85 14.3188 13.3656 14.5469C14.025 14.7344 14.5094 15.0688 14.8281 15.5375C15.1531 16.0125 15.3125 16.5813 15.3125 17.25C15.3125 17.7938 15.2094 18.2594 15 18.65ZM23.7125 17H18.1375C18.1375 17.6063 18.3469 18.1875 18.6625 18.5C18.9813 18.8094 19.4375 18.9656 20.0344 18.9656C20.4656 18.9656 20.8312 18.8563 21.1437 18.6406C21.4531 18.425 21.6406 18.1969 21.7094 17.9594H23.5781C23.2781 18.8875 22.8219 19.55 22.2031 19.95C21.5906 20.35 20.8406 20.55 19.9688 20.55C19.3594 20.55 18.8125 20.45 18.3219 20.2594C17.85 20.075 17.425 19.7937 17.075 19.4312C16.7299 19.059 16.4632 18.6211 16.2906 18.1437C16.1 17.6156 16.0063 17.0594 16.0125 16.5C16.0125 15.9219 16.1094 15.3844 16.2969 14.8844C16.6562 13.9125 17.4031 13.1344 18.3563 12.7312C18.8656 12.5188 19.4125 12.4125 19.9656 12.4187C20.6219 12.4187 21.1906 12.5437 21.6844 12.8C22.1597 13.0447 22.5724 13.3954 22.8906 13.825C23.2062 14.2531 23.4281 14.7406 23.5688 15.2906C23.7031 15.8312 23.75 16.4 23.7125 17ZM19.9 14.0125C19.5625 14.0125 19.2781 14.0719 19.0594 14.1875C18.8406 14.3031 18.6594 14.4469 18.5219 14.6125C18.3909 14.7724 18.2941 14.9575 18.2375 15.1562C18.1875 15.3219 18.1531 15.4906 18.1406 15.6625H21.5938C21.5438 15.1219 21.3563 14.7219 21.1063 14.4406C20.8438 14.1625 20.4219 14.0125 19.9 14.0125Z" fill="white"/>
</svg>
