<svg width="30" height="30" viewBox="0 0 30 30" fill="none" xmlns="http://www.w3.org/2000/svg">
<path d="M14.9962 10.3313C12.4255 10.3313 10.3277 12.4293 10.3277 15C10.3277 17.5707 12.4255 19.6687 14.9962 19.6687C17.5669 19.6687 19.6648 17.5707 19.6648 15C19.6648 12.4293 17.5669 10.3313 14.9962 10.3313ZM28.9984 15C28.9984 13.0667 29.0159 11.1509 28.9074 9.2211C28.7988 6.97958 28.2875 4.99024 26.6484 3.35113C25.0058 1.70852 23.02 1.20068 20.7785 1.0921C18.8453 0.98353 16.9295 1.00104 14.9997 1.00104C13.0665 1.00104 11.1507 0.98353 9.22094 1.0921C6.97947 1.20068 4.99016 1.71202 3.35109 3.35113C1.70851 4.99374 1.20067 6.97958 1.0921 9.2211C0.98353 11.1544 1.00104 13.0702 1.00104 15C1.00104 16.9298 0.98353 18.8491 1.0921 20.7789C1.20067 23.0204 1.71201 25.0098 3.35109 26.6489C4.99367 28.2915 6.97947 28.7993 9.22094 28.9079C11.1542 29.0165 13.07 28.999 14.9997 28.999C16.933 28.999 18.8488 29.0165 20.7785 28.9079C23.02 28.7993 25.0093 28.288 26.6484 26.6489C28.291 25.0063 28.7988 23.0204 28.9074 20.7789C29.0195 18.8491 28.9984 16.9333 28.9984 15ZM14.9962 22.1834C11.0211 22.1834 7.81302 18.9752 7.81302 15C7.81302 11.0248 11.0211 7.81665 14.9962 7.81665C18.9713 7.81665 22.1795 11.0248 22.1795 15C22.1795 18.9752 18.9713 22.1834 14.9962 22.1834ZM22.4736 9.20008C21.5455 9.20008 20.796 8.45057 20.796 7.52245C20.796 6.59432 21.5455 5.84481 22.4736 5.84481C23.4018 5.84481 24.1513 6.59432 24.1513 7.52245C24.1515 7.74284 24.1083 7.96111 24.0241 8.16478C23.9399 8.36844 23.8163 8.55349 23.6605 8.70933C23.5047 8.86517 23.3196 8.98873 23.116 9.07294C22.9123 9.15715 22.694 9.20036 22.4736 9.20008Z" fill="white"/>
</svg>
