<svg width="30" height="30" viewBox="0 0 30 30" fill="none" xmlns="http://www.w3.org/2000/svg">
<path d="M29.37 7.75401C29.1958 7.13127 28.8638 6.56405 28.406 6.10729C27.9483 5.65052 27.3804 5.31969 26.7572 5.14683C24.4182 4.52151 15.015 4.52151 15.015 4.52151C15.015 4.52151 5.62973 4.50651 3.26629 5.14683C2.64417 5.32045 2.07735 5.65163 1.62063 6.10835C1.16391 6.56507 0.832731 7.13189 0.659106 7.75401C0.214919 10.1486 -0.00385051 12.5795 0.00566883 15.015C0.00133468 17.4386 0.22007 19.8576 0.659106 22.2412C0.833293 22.8637 1.16457 23.4309 1.62113 23.8884C2.07769 24.346 2.64421 24.6785 3.26629 24.854C5.60536 25.4793 15.015 25.4793 15.015 25.4793C15.015 25.4793 24.3947 25.4793 26.7572 24.854C27.3803 24.6792 27.9479 24.3471 28.4055 23.8895C28.8631 23.4319 29.1953 22.8643 29.37 22.2412C29.8004 19.859 30.0104 17.4365 29.9954 15.015C30.0104 12.5775 29.805 10.1512 29.37 7.75401ZM12.0113 19.5028V10.5075L19.8385 15.015L12.0113 19.5028Z" fill="white"/>
</svg>
